<?xml version="1.0" standalone="no"?>
<!DOCTYPE svg PUBLIC "-//W3C//DTD SVG 1.1//EN" "http://www.w3.org/Graphics/SVG/1.1/DTD/svg11.dtd" >
<svg>
<metadata>
Created by FontForge 20090914 at Fri Apr 17 16:56:14 2020
 By www-data
&#194;&#169; 1991 Bigelow &#38; Holmes Inc. All Rights Reserved. &#194;&#169; 1990-1991 Type Solutions, Inc. All Rights Reserved.
</metadata>
<defs>
<font id="LucidaSans-Italic" horiz-adv-x="1295" >
  <font-face 
    font-family="Lucida Sans"
    font-weight="400"
    font-style="italic"
    font-stretch="normal"
    units-per-em="2048"
    panose-1="2 11 6 2 3 5 4 9 2 4"
    ascent="1638"
    descent="-410"
    x-height="1086"
    cap-height="1480"
    bbox="-512 -432.001 2252 1900"
    underline-thickness="100"
    underline-position="-150"
    slope="-11.25"
    unicode-range="U+0020-U+F002"
  />
<missing-glyph horiz-adv-x="1024" 
d="M102 0v1092h820v-1092h-820zM204 102h616v888h-616v-888z" />
    <glyph glyph-name=".notdef" horiz-adv-x="1024" 
d="M102 0v1092h820v-1092h-820zM204 102h616v888h-616v-888z" />
    <glyph glyph-name="space" unicode=" " horiz-adv-x="648" 
 />
    <glyph glyph-name="exclam" unicode="!" horiz-adv-x="648" 
d="M225 0l39 197h198l-40 -197h-197zM328 395l133 789l59 296h197l-59 -296l-182 -789h-148z" />
    <glyph glyph-name="quotedbl" unicode="&#x22;" horiz-adv-x="740" 
d="M383 1086l-25 493h197l-24 -493h-148zM728 1086l-25 493h198l-25 -493h-148z" />
    <glyph glyph-name="numbersign" unicode="#" 
d="M182 0l210 444h-230l25 124h263l162 345h-357l25 123h390l209 444h137l-209 -444h254l210 444h136l-209 -444h229l-24 -123h-263l-163 -345h357l-25 -124h-390l-209 -444h-136l209 444h-255l-209 -444h-137zM586 568h255l162 345h-254z" />
    <glyph glyph-name="dollar" unicode="$" 
d="M564 -123l24.998 122.999c-119.333 10.667 -220.666 29.667 -303.999 57l33 168c95.333 -46 195.333 -71.667 300 -77l110 551c-16.667 12.667 -29 22.334 -37 29.001c-83.333 64.667 -135.666 111.167 -156.999 139.5s-38 60.333 -50 96s-18.333 73.167 -19 112.5
c0 92.667 35.167 179.667 105.5 261s174.5 129 312.5 143l25 124h101l-25 -124c100 -5.33301 206 -25.666 318 -60.999l-32 -161c-109.333 44 -214.333 68.667 -315 74l-102 -512l25 -18c104 -75.333 173.333 -137.833 208 -187.5s52 -106.834 52 -171.501
c0 -108 -38.333 -203.833 -115 -287.5s-187.667 -134.167 -333 -151.5l-25 -127h-101zM719.998 153.999c78.667 18 137.167 49.167 175.5 93.5s57.5 98.833 57.5 163.5c0 46.667 -10 86.167 -30 118.5s-55.667 67.833 -107 106.5zM765.998 889.999l87.999 441.999
c-27.333 0 -61.166 -11.333 -101.499 -34s-69.5 -52.667 -87.5 -90s-27 -76 -27 -116c0 -35.333 8.5 -67.666 25.5 -96.999s51.167 -64.333 102.5 -105z" />
    <glyph glyph-name="percent" unicode="%" horiz-adv-x="1517" 
d="M534 740c-68 0 -126.666 21.3311 -175.999 63.998s-74 109.334 -74 200.001c0 84.667 18.333 165.334 55 242.001s85.167 134.834 145.5 174.501s125.166 59.5 194.499 59.5c70.667 0 130.5 -21.333 179.5 -64s73.5 -109 73.5 -199c0 -85.333 -18.5 -166.333 -55.5 -243
s-85.167 -134.834 -144.5 -174.501s-125.333 -59.5 -198 -59.5zM558.001 850.998c63.333 0 117.833 36.501 163.5 109.501s68.5 152.167 68.5 237.5c0 57.333 -11.333 100.166 -34 128.499s-53.667 42.5 -93 42.5c-62.667 0 -116.834 -36.333 -162.501 -109
s-68.5 -151.667 -68.5 -237c0 -57.333 11.333 -100.333 34 -129s53.334 -43 92.001 -43zM149.001 -37.001l1353 1554h164l-1354 -1554h-163zM1132 -0.000976562c-67.333 0 -125.833 21.167 -175.5 63.5s-74.5 109.166 -74.5 200.499c0 84.667 18.5 165.334 55.5 242.001
s85.667 134.834 146 174.501s125.166 59.5 194.499 59.5c70.667 0 130.334 -21.5 179.001 -64.5s73 -109.167 73 -198.5c0 -85.333 -18.5 -166.333 -55.5 -243s-85.167 -134.834 -144.5 -174.501s-125.333 -59.5 -198 -59.5zM1157 110.999c41.333 0 79.5 15.833 114.5 47.5
s63.167 75.5 84.5 131.5s32 111.667 32 167c0 57.333 -11.167 100.333 -33.5 129s-53.5 43 -93.5 43c-62 0 -116 -36.333 -162 -109s-69 -151.667 -69 -237c0 -57.333 11.5 -100.333 34.5 -129s53.833 -43 92.5 -43z" />
    <glyph glyph-name="ampersand" unicode="&#x26;" horiz-adv-x="1437" 
d="M1089 0c-21.333 21.333 -44.668 55 -70.001 101c-54 -37.333 -103.167 -64.833 -147.5 -82.5s-90 -31.334 -137 -41.001s-93.5 -14.5 -139.5 -14.5c-118.667 0 -218.167 40.167 -298.5 120.5s-120.5 179.833 -120.5 298.5c0 74 16 142.667 48 206
s80.833 120.666 146.5 171.999s156.5 97 272.5 137c-32 101.333 -48 180 -48 236c0 93.333 39.667 180.666 119 261.999s176.333 122 291 122c86.667 0 156.334 -22.667 209.001 -68s79 -107.666 79 -186.999c0 -183.333 -141 -332.666 -423 -447.999
c52.667 -138.667 130.334 -296.667 233.001 -474c48 61.333 85.167 124.5 111.5 189.5s43.833 153.167 52.5 264.5h196c-12.667 -88 -31.334 -163.833 -56.001 -227.5s-54 -123.667 -88 -180s-79 -112.166 -135 -167.499c9.33301 -16 15.333 -26 18 -30l62 -89l55 -79
l16 -21h-246zM944.998 225c-93.333 151.333 -179.669 328.669 -259.002 532.002c-98.667 -32.667 -173.334 -78.834 -224.001 -138.501s-76 -127.834 -76 -204.501c0 -52 11.833 -102.167 35.5 -150.5s57.834 -83.833 102.501 -106.5s92.334 -34 143.001 -34
c92.667 0 185.334 34 278.001 102zM821.995 953.003c108 39.333 183.667 86.5 227 141.5s65 107.833 65 158.5c0 32 -10.333 59.5 -31 82.5s-52 34.5 -94 34.5c-38.667 0 -73.5 -9.83301 -104.5 -29.5s-55 -47.667 -72 -84s-25.5 -72.833 -25.5 -109.5
c0 -48 11.667 -112.667 35 -194z" />
    <glyph glyph-name="quotesingle" unicode="'" horiz-adv-x="444" 
d="M407 1036l-49 543h247l-50 -543h-148z" />
    <glyph glyph-name="parenleft" unicode="(" horiz-adv-x="666" 
d="M503 -296c-78.667 62.667 -137.002 127.001 -175.002 193.001s-68.167 142.667 -90.5 230s-33.5 176.666 -33.5 267.999c0 140 26.5 284.667 79.5 434s124.833 284.5 215.5 405.5s216.334 235.833 377.001 344.5l-29 -148
c-115.333 -105.333 -203.833 -218.833 -265.5 -340.5s-110.167 -252.667 -145.5 -393s-53 -271.833 -53 -394.5c0 -58 5.66699 -115.667 17 -173s26.333 -108.5 45 -153.5s47.334 -88.5 86.001 -130.5z" />
    <glyph glyph-name="parenright" unicode=")" horiz-adv-x="666" 
d="M419 1579c78.667 -62 137.001 -126.168 175.001 -192.501s68.167 -143.166 90.5 -230.499s33.5 -176.666 33.5 -267.999c0 -140 -26.5 -284.667 -79.5 -434s-124.667 -284.333 -215 -405s-216.166 -235.667 -377.499 -345l29 148
c115.333 105.333 203.666 218.833 264.999 340.5s109.833 252.667 145.5 393s53.5 271.5 53.5 393.5c0 58 -5.66699 115.833 -17 173.5s-26.333 109.167 -45 154.5s-47.334 88.666 -86.001 129.999z" />
    <glyph glyph-name="asterisk" unicode="*" horiz-adv-x="962" 
d="M475 736l-118 107l266 233c14 -25.333 32 -41 54 -47zM327 1131l69 147l254 -110c-21.333 -16.667 -32 -38.667 -32 -66c0 -3.33301 1 -9 3 -17zM680 1480h161.999l-97 -312c-14.667 8 -29.667 12 -45 12c-13.333 0 -26.666 -4 -39.999 -12zM1058 1267l25 -145l-313 -45
c3.33301 12 5 21.333 5 28c0 18.667 -8 36.667 -24 54zM906.999 827l-150 -86l-70 284c18 0 32.333 2.5 43 7.5s22 14.833 34 29.5z" />
    <glyph glyph-name="plus" unicode="+" 
d="M584 49l93 469h-469l29 148h469l94 469h148l-94 -469h469l-29 -148h-469l-93 -469h-148z" />
    <glyph glyph-name="comma" unicode="," horiz-adv-x="648" 
d="M293 0h-92l49 247h247l-45 -228c-20 -99.333 -53.833 -179.5 -101.5 -240.5s-119.167 -94.167 -214.5 -99.5l16 74c31.333 0 57.5 14.833 78.5 44.5s39.167 83.5 54.5 161.5z" />
    <glyph glyph-name="hyphen" unicode="-" horiz-adv-x="642" 
d="M207 543l29 148h444l-29 -148h-444z" />
    <glyph glyph-name="period" unicode="." horiz-adv-x="648" 
d="M200 0l49 247h247l-49 -247h-247z" />
    <glyph glyph-name="slash" unicode="/" horiz-adv-x="987" 
d="M-47 -296l1161 1875h174l-1161 -1875h-174z" />
    <glyph glyph-name="zero" unicode="0" 
d="M655 -37c-108.667 0 -203.834 41 -285.501 123s-122.5 206 -122.5 372c0 165.333 28 327.166 84 485.499s135.167 293.5 237.5 405.5s223.5 168 363.5 168c114 0 211.333 -41.5 292 -124.5s121 -206.5 121 -370.5c0 -164.667 -27.667 -325.667 -83 -483
s-134.166 -292.666 -236.499 -405.999s-225.833 -170 -370.5 -170zM679 110c159.333 7.33301 277.332 121.667 353.999 343s115 430.333 115 627c0 106 -24.167 180.833 -72.5 224.5s-103.833 65.5 -166.5 65.5c-81.333 0 -155.166 -36.833 -221.499 -110.5
s-123.5 -195.5 -171.5 -365.5s-72 -334.667 -72 -494c0 -68 10.333 -123.167 31 -165.5s51 -74 91 -95s77.667 -30.833 113 -29.5z" />
    <glyph glyph-name="one" unicode="1" 
d="M535 0l264 1329h-230l25 124l438 40l-300 -1493h-197z" />
    <glyph glyph-name="two" unicode="2" 
d="M191 0l32 160c44.667 82 99 155.5 163 220.5s142.667 133.167 236 204.5l125 95c118 90 209 173.667 273 251c32 38.667 56 77.167 72 115.5s24 76.5 24 114.5c0 62.667 -21.667 113.167 -65 151.5s-107.666 57.5 -192.999 57.5
c-119.333 0 -250.666 -40.333 -393.999 -121l35 176l51 20c130.667 48 250 72 358 72c127.333 0 228.833 -27.5 304.5 -82.5s113.5 -138.167 113.5 -249.5c0 -59.333 -10.667 -115.333 -32 -168c-32 -80.667 -77.167 -149 -135.5 -205s-141.5 -123 -249.5 -201l-125 -91
c-74.667 -54 -125.834 -94 -153.501 -120s-54.834 -54.667 -81.501 -86l-44 -57.5c-14 -19 -29 -46.833 -45 -83.5h654l-35 -173h-888z" />
    <glyph glyph-name="three" unicode="3" 
d="M235 11l34.001 169.001c128.667 -46 234.334 -69 317.001 -69c108.667 0 198.334 34.667 269.001 104c34 34 61.167 74.667 81.5 122s30.5 95.666 30.5 144.999c0 84 -34.667 147 -104 189s-173.333 63 -312 63h-49l30 148h49c183.333 0 317.666 41.667 402.999 125
c26 26 47.167 56 63.5 90s24.5 67.333 24.5 100c0 48 -19.667 88.833 -59 122.5s-100.666 50.5 -183.999 50.5c-92.667 0 -198.334 -20 -317.001 -60l33 168c112.667 26.667 220 40 322 40c132 0 232 -26 300 -78s102 -126 102 -222c0 -97.333 -37 -184.333 -111 -261
c-29.333 -30.667 -61.5 -57.5 -96.5 -80.5s-91.5 -46.833 -169.5 -71.5c103.333 -26 175.5 -67.167 216.5 -123.5s61.5 -117.833 61.5 -184.5c0 -64.667 -14 -129.667 -42 -195s-65 -121.666 -111 -168.999c-58 -60.667 -123.833 -104.167 -197.5 -130.5
s-165.167 -39.5 -274.5 -39.5c-48.667 0 -92.834 2.66699 -132.501 8s-98.834 18.666 -177.501 39.999z" />
    <glyph glyph-name="four" unicode="4" 
d="M747 0l76 382h-654l37 186l811 912h209l-186 -937h197l-32 -161h-197l-76 -382h-185zM378 543h489l133 690z" />
    <glyph glyph-name="five" unicode="5" 
d="M271 0l34.002 173c80 -28.667 138.833 -46.167 176.5 -52.5s75.167 -9.5 112.5 -9.5c137.333 0 238.166 42.5 302.499 127.5s96.5 174.167 96.5 267.5c0 82.667 -29 148.334 -87 197.001s-152.333 73 -283 73c-56.667 0 -115.334 -5.33301 -176.001 -16l143 720h777
l-34 -172h-629l-76 -383h34c188.667 0 325.834 -41.167 411.501 -123.5s128.5 -176.5 128.5 -282.5c0 -66 -14.667 -134.667 -44 -206s-67.333 -131 -114 -179c-57.333 -58.667 -126 -101.834 -206 -129.501s-166.333 -41.5 -259 -41.5
c-90.667 0 -193.334 12.333 -308.001 37z" />
    <glyph glyph-name="six" unicode="6" 
d="M542 836c58.667 42 117.497 73.499 176.497 94.499s118.5 31.5 178.5 31.5c108.667 0 198.834 -34.167 270.501 -102.5s107.5 -152.833 107.5 -253.5c0 -86 -19.5 -173.167 -58.5 -261.5s-91.167 -164.833 -156.5 -229.5c-48 -48 -103.167 -85.333 -165.5 -112
s-130.166 -40 -203.499 -40c-138.667 0 -243.667 47.333 -315 142s-107 214.667 -107 360c0 154.667 27.667 306.5 83 455.5s131.333 278.833 228 389.5c58 66 124.833 117 200.5 153s158.834 54 249.501 54c48.667 0 100 -3.66699 154 -11
c32 -4.66699 60 -9.83398 84 -15.501s61 -17.5 111 -35.5l-34 -168c-116 54.667 -225 82 -327 82c-92.667 0 -174 -31.333 -244 -94c-41.333 -37.333 -78 -80.666 -110 -129.999c-22.667 -34 -43.667 -71.667 -63 -113s-39 -106.666 -59 -195.999zM472.997 414.999
c0 -97.333 22.999 -172.334 68.999 -225.001s106 -79 180 -79c40.667 0 79.834 8.5 117.501 25.5s69.834 39.167 96.501 66.5c44 47.333 78.5 103.833 103.5 169.5s37.5 130.834 37.5 195.501c0 74.667 -20.833 132.334 -62.5 173.001s-94.167 61 -157.5 61
c-86.667 0 -172.334 -31.333 -257.001 -94s-127 -160.334 -127 -293.001z" />
    <glyph glyph-name="seven" unicode="7" 
d="M308 0c16.667 87.333 34.001 152.834 52.001 196.501s37.667 84.5 59 122.5c54 97.333 120.167 197.333 198.5 300s164.166 205.667 257.499 309l332 367h-734l37 185h938l-35 -172l-70 -72c-211.333 -216.667 -390 -432.334 -536 -647.001
c-69.333 -102.667 -129.333 -204.667 -180 -306c-16.667 -34 -32.5 -70.667 -47.5 -110s-29.5 -97 -43.5 -173h-228z" />
    <glyph glyph-name="eight" unicode="8" 
d="M608 798c-46.667 46.667 -78.5 83.166 -95.5 109.499s-30.333 54.5 -40 84.5s-14.5 58.667 -14.5 86c0 67.333 22.333 137.5 67 210.5s104.834 129.333 180.501 169s158.834 59.5 249.501 59.5c71.333 0 137.666 -12.167 198.999 -36.5s105.666 -58.5 132.999 -102.5
s41 -91 41 -141c0 -74 -25.833 -149.667 -77.5 -227s-140.5 -148 -266.5 -212c68.667 -44 126.667 -94 174 -150s71 -127.333 71 -214c0 -88 -25.833 -168.333 -77.5 -241s-119.5 -129.167 -203.5 -169.5s-178 -60.5 -282 -60.5c-126.667 0 -229 30.333 -307 91
s-117 143.334 -117 248.001c0 56 12 112 36 168s61 110.333 111 163s123 107.667 219 165zM738 710.999c-120 -73.333 -199.834 -138.166 -239.501 -194.499s-59.5 -113.5 -59.5 -171.5c0 -66.667 25 -122.334 75 -167.001s113 -67 189 -67c56 0 108.833 12 158.5 36
s88.334 57 116.001 99s41.5 87.667 41.5 137c0 54 -16.5 102.833 -49.5 146.5s-110.167 104.167 -231.5 181.5zM838.999 886.999c116.667 57.333 198.499 111.5 245.499 162.5s70.5 102.5 70.5 154.5s-19.5 92.5 -58.5 121.5s-92.167 43.5 -159.5 43.5
c-85.333 0 -153.666 -23.167 -204.999 -69.5s-77 -100.833 -77 -163.5c0 -43.333 13.333 -84.333 40 -123s74.667 -80.667 144 -126z" />
    <glyph glyph-name="nine" unicode="9" 
d="M1048 645c-58 -42 -116.665 -73.668 -175.998 -95.001s-119 -32 -179 -32c-108.667 0 -198.834 34.333 -270.501 103s-107.5 153.334 -107.5 254.001c0 104 28.5 209.167 85.5 315.5s127.833 187.333 212.5 243s180 83.5 286 83.5c138.667 0 243.667 -47.333 315 -142
s107 -214.667 107 -360c0 -178 -36.333 -351.5 -109 -520.5s-163.334 -299.833 -272.001 -392.5s-242.334 -139 -401.001 -139c-43.333 0 -87.666 3 -132.999 9s-110.333 23.667 -195 53l34 169c116 -55.333 225.667 -83 329 -83c74 0 140.667 20.333 200 61
s113 99.667 161 177s85.667 176 113 296zM1117 1066c0 96.667 -23.001 171.334 -69.001 224.001s-106 79 -180 79c-62 0 -119.167 -18.5 -171.5 -55.5s-96 -93.5 -131 -169.5s-52.5 -153.333 -52.5 -232c0 -74.667 20.833 -132.334 62.5 -173.001s94.167 -61 157.5 -61
c86.667 0 172.334 31.5 257.001 94.5s127 160.833 127 293.5z" />
    <glyph glyph-name="colon" unicode=":" horiz-adv-x="648" 
d="M225 0l39 197h198l-40 -197h-197zM402 888l39 198h197l-39 -198h-197z" />
    <glyph glyph-name="semicolon" unicode=";" horiz-adv-x="648" 
d="M293 0h-68l39 197h198l-40 -198c-21.333 -106.667 -56.833 -184.667 -106.5 -234s-101.167 -78 -154.5 -86l19 93c40 12 66.333 39.5 79 82.5s22.667 84.167 30 123.5zM402 888l39 198h197l-39 -198h-197z" />
    <glyph glyph-name="less" unicode="&#x3c;" 
d="M1201 49l-978 543l1194 543l-39 -182l-824 -373l675 -373z" />
    <glyph glyph-name="equal" unicode="=" 
d="M174 345l29 148h1086l-29 -148h-1086zM243 691l29 148h1086l-30 -148h-1085z" />
    <glyph glyph-name="greater" unicode="&#x3e;" 
d="M439 1135l978 -543l-1194 -543l39 182l824 374l-675 373z" />
    <glyph glyph-name="question" unicode="?" horiz-adv-x="950" 
d="M274 0l39 197h198l-40 -197h-197zM353 395l2 11.999c18 88 41 154.5 69 199.5s71.333 96.5 130 154.5l110 107c107.333 105.333 170 177.166 188 215.499s27 77.5 27 117.5c0 50.667 -20.333 91.334 -61 122.001s-99.334 46 -176.001 46c-40 0 -81.333 -3.66699 -124 -11
s-110 -31 -202 -71l34 173c52 17.333 94.167 29.333 126.5 36s68.333 11.834 108 15.501s78.834 5.5 117.501 5.5c120 0 214.333 -25.833 283 -77.5s103 -122.167 103 -211.5c0 -70.667 -20.333 -138.667 -61 -204s-113.334 -142 -218.001 -230l-79 -67
c-30.667 -25.333 -63.167 -61.5 -97.5 -108.5s-61.166 -117.5 -80.499 -211.5l-2 -12h-197z" />
    <glyph glyph-name="at" unicode="@" horiz-adv-x="1758" 
d="M1228 44c-120 -54 -237.669 -81.001 -353.002 -81.001c-124 0 -235.5 25.833 -334.5 77.5s-175.833 127.334 -230.5 227.001s-82 202.5 -82 308.5c0 152.667 43.667 305.667 131 459s204.333 272 351 356s297.667 126 453 126c124 0 235.833 -27.333 335.5 -82
s178 -130.667 235 -228s85.5 -203 85.5 -317c0 -104 -23.833 -203.833 -71.5 -299.5s-110.667 -168.667 -189 -219s-163.833 -75.5 -256.5 -75.5c-59.333 0 -101.833 11.5 -127.5 34.5s-38.5 49.833 -38.5 80.5c0 28 6.66699 63 20 105l40 126h-12
c-62 -119.333 -127 -206.833 -195 -262.5s-132 -83.5 -192 -83.5s-107.167 21.167 -141.5 63.5s-51.5 95.833 -51.5 160.5c0 104 28 212.5 84 325.5s121.333 196.667 196 251s156.334 81.5 245.001 81.5c20.667 0 47 -1 79 -3c33.333 -2 59.333 -3 78 -3h137l-126 -636
c-4 -21.333 -6 -42 -6 -62c0 -22 6.33301 -38.667 19 -50s31.667 -17 57 -17c58 0 114.667 24 170 72s97.666 105.333 126.999 172s44 140.667 44 222c0 157.333 -55.333 285.666 -166 384.999s-242 149 -394 149c-135.333 0 -266.5 -38 -393.5 -114
s-228 -179.667 -303 -311s-112.5 -263.333 -112.5 -396c0 -88.667 22.833 -174.5 68.5 -257.5s109.667 -146.167 192 -189.5s179.5 -65 291.5 -65c38.667 0 80.334 2.83301 125.001 8.5s103.334 26.834 176.001 63.501zM1208 832.999l38.9971 195.001
c-61.333 22 -114.666 33 -159.999 33c-110.667 0 -193.167 -56 -247.5 -168s-81.5 -222.667 -81.5 -332c0 -42.667 7.5 -77 22.5 -103s35.167 -39 60.5 -39c36.667 0 88.334 35.667 155.001 107s137.334 173.666 212.001 306.999z" />
    <glyph glyph-name="A" unicode="A" horiz-adv-x="1406" 
d="M36 0l852 1480h209l286 -1480h-212l-75 381h-636l-218 -381h-206zM549 538h517l-137 668z" />
    <glyph glyph-name="B" unicode="B" horiz-adv-x="1215" 
d="M191 0l294.999 1480h318c200 0 327.667 -29.333 383 -88s83 -121.667 83 -189c0 -55.333 -13.833 -111 -41.5 -167s-66.5 -105.833 -116.5 -149.5s-120 -81.834 -210 -114.501c72.667 -25.333 128.834 -55.666 168.501 -90.999s69.5 -74.666 89.5 -117.999
s30 -89.666 30 -138.999c0 -103.333 -42.333 -199.833 -127 -289.5s-224.667 -134.5 -420 -134.5h-452zM430.999 156.998h138.999c154.667 0 260.834 27.667 318.501 83s86.5 122 86.5 200c0 84 -40.333 148 -121 192s-170 66 -268 66h-49zM563.998 833.998h93
c116 0 211.167 35.167 285.5 105.5s111.5 144.166 111.5 221.499c0 33.333 -8.5 62.333 -25.5 87s-44 43.334 -81 56.001s-110.833 19 -221.5 19h-65z" />
    <glyph glyph-name="C" unicode="C" horiz-adv-x="1391" 
d="M1328 86c-209.333 -82 -398.333 -123.001 -567 -123.001c-165.333 0 -296.333 49.667 -393 149s-145 236.333 -145 411c0 166 41.167 327.333 123.5 484s191.166 281 326.499 373s298 138 488 138c131.333 0 269.666 -17 414.999 -51l-36 -183
c-142.667 42.667 -239.334 66 -290.001 70s-88.667 6 -114 6c-131.333 0 -246.5 -34.333 -345.5 -103s-181.333 -171.167 -247 -307.5s-98.5 -272.5 -98.5 -408.5c0 -127.333 34.833 -227.166 104.5 -299.499s169.834 -108.5 300.501 -108.5
c48.667 0 103.334 4.5 164.001 13.5s176.334 44.5 347.001 106.5z" />
    <glyph glyph-name="D" unicode="D" horiz-adv-x="1521" 
d="M191 0l294.998 1480h520c154 0 268.5 -16.667 343.5 -50s135.167 -89.5 180.5 -168.5s68 -179.833 68 -302.5c0 -167.333 -39.167 -327.166 -117.5 -479.499s-180.666 -270.333 -306.999 -354s-296.166 -125.5 -509.499 -125.5h-473zM429.998 156.999l215 0.000976562
c173.333 0 307.833 32.5 403.5 97.5s174.167 162.167 235.5 291.5s92 263.666 92 402.999c0 80 -16 147.5 -48 202.5s-83.5 97.333 -154.5 127s-194.167 44.5 -369.5 44.5h-140z" />
    <glyph glyph-name="E" unicode="E" horiz-adv-x="1121" 
d="M191 0l295 1480h826l-31 -157h-617l-94 -475h504l-30 -155h-505l-107 -536h660l-31 -157h-870z" />
    <glyph glyph-name="F" unicode="F" horiz-adv-x="1098" 
d="M191 0l295 1480h826l-31 -157h-617l-98 -495h504l-31 -155h-504l-134 -673h-210z" />
    <glyph glyph-name="G" unicode="G" horiz-adv-x="1438" 
d="M1319 61c-200 -65.333 -387.998 -98.0029 -563.998 -98.0029c-158.667 0 -287 48.667 -385 146s-147 235 -147 413c0 168.667 40.667 331.334 122 488.001s189.166 280.334 323.499 371.001s293.5 136 477.5 136c120 0 261 -16.667 423 -50l-36 -180
c-166 48.667 -304 73 -414 73c-128 0 -240.333 -35.333 -337 -106s-176.834 -174 -240.501 -310s-95.5 -275.667 -95.5 -419c0 -119.333 32 -216.666 96 -291.999s167.667 -113 311 -113c83.333 0 176.333 17.333 279 52l91 457h208z" />
    <glyph glyph-name="H" unicode="H" horiz-adv-x="1505" 
d="M191 0l295 1480h209l-124 -625h704l124 625h210l-294 -1480h-210l139 698h-704l-139 -698h-210z" />
    <glyph glyph-name="I" unicode="I" horiz-adv-x="592" 
d="M191 0l295 1480h209l-294 -1480h-210z" />
    <glyph glyph-name="J" unicode="J" horiz-adv-x="835" 
d="M-45 -263l35.002 177c82.667 -32 158.667 -48 228 -48c127.333 0 209.333 92.667 246 278l266 1336h210l-237 -1189c-36.667 -185.333 -78.834 -312 -126.501 -380s-105.167 -119.667 -172.5 -155s-148.333 -53 -243 -53c-46.667 0 -115.334 11.333 -206.001 34z" />
    <glyph glyph-name="K" unicode="K" horiz-adv-x="1301" 
d="M191 0l295 1480h209l-142 -714l705 714h216l-703 -710l518 -770h-239l-498 759l-151 -759h-210z" />
    <glyph glyph-name="L" unicode="L" horiz-adv-x="1117" 
d="M191 0l295 1480h209l-263 -1323h690l-32 -157h-899z" />
    <glyph glyph-name="M" unicode="M" horiz-adv-x="1696" 
d="M189 0l295 1480h285l162 -1063l594 1063h277l-294 -1480h-196l242 1214l-599 -1071h-179l-164 1076l-243 -1219h-180z" />
    <glyph glyph-name="N" unicode="N" horiz-adv-x="1517" 
d="M193 0l295 1480h205l513 -1173l233 1173h180l-294 -1480h-206l-512 1174l-234 -1174h-180z" />
    <glyph glyph-name="O" unicode="O" horiz-adv-x="1591" 
d="M764 -37c-162.667 0 -293.5 49.001 -392.5 147.001s-148.5 236 -148.5 414c0 169.333 39.167 330.333 117.5 483s185.166 275.834 320.499 369.501s288.333 140.5 459 140.5c168 0 301.167 -49.333 399.5 -148s147.5 -236.334 147.5 -413.001
c0 -170.667 -40 -332.834 -120 -486.501s-187.167 -276.5 -321.5 -368.5s-288.166 -138 -461.499 -138zM803 120.001c110.667 0 213.666 35.5 308.999 106.5s174.5 173.5 237.5 307.5s94.5 270.333 94.5 409c0 119.333 -31.333 218.666 -94 297.999s-151.667 119 -267 119
c-106 0 -207.167 -35.167 -303.5 -105.5s-176 -172.666 -239 -306.999s-94.5 -271.166 -94.5 -410.499c0 -120.667 31.833 -220.334 95.5 -299.001s150.834 -118 261.501 -118z" />
    <glyph glyph-name="P" unicode="P" horiz-adv-x="1178" 
d="M191 0l294.999 1480h422c139.333 0 242 -27.167 308 -81.5s99 -128.5 99 -222.5s-30.667 -189.333 -92 -286s-144.166 -170.5 -248.499 -221.5s-216.5 -76.5 -336.5 -76.5h-121l-118 -592h-208zM547.999 749l95 0.000976562c149.333 0 262 43.667 338 131
s114 180 114 278c0 69.333 -25.5 114.166 -76.5 134.499s-127.833 30.5 -230.5 30.5h-125z" />
    <glyph glyph-name="Q" unicode="Q" horiz-adv-x="1591" 
d="M1465 -357c-130.667 50 -234.332 100.498 -310.999 151.498s-155.667 111.167 -237 180.5c-49.333 -8 -95 -12 -137 -12c-177.333 0 -314.5 50 -411.5 150s-145.5 237 -145.5 411c0 169.333 39.167 330.333 117.5 483s185.166 275.834 320.499 369.501
s288.333 140.5 459 140.5c168 0 301.167 -49.167 399.5 -147.5s147.5 -236.166 147.5 -413.499c0 -124.667 -22 -246 -66 -364s-106.333 -223.333 -187 -316s-187.667 -174.667 -321 -246c82 -56.667 166.333 -102.667 253 -138s185.667 -63.333 297 -84zM803.002 119.998
c110.667 0 213.666 35.5 308.999 106.5s174.5 173.5 237.5 307.5s94.5 270.333 94.5 409c0 119.333 -31.5 218.666 -94.5 297.999s-151.833 119 -266.5 119c-106 0 -207.167 -35.167 -303.5 -105.5s-176 -172.666 -239 -306.999s-94.5 -271.166 -94.5 -410.499
c0 -120.667 31.833 -220.334 95.5 -299.001s150.834 -118 261.501 -118z" />
    <glyph glyph-name="R" unicode="R" 
d="M191 0l295.001 1480h446c78.667 0 144.667 -6.66699 198 -20s97.666 -43.833 132.999 -91.5s53 -106.167 53 -175.5c0 -100 -35.667 -194.5 -107 -283.5s-167.333 -156.833 -288 -203.5l351 -706h-233l-310 654h-200l-130 -654h-208zM560.001 809h116.003
c83.333 0 155.666 15.667 216.999 47s110.166 76.5 146.499 135.5s54.5 118.167 54.5 177.5c0 51.333 -19.333 89.833 -58 115.5s-118.334 38.5 -239.001 38.5h-133z" />
    <glyph glyph-name="S" unicode="S" horiz-adv-x="1133" 
d="M131 31l36 182.999c92 -38.667 165.667 -64 221 -76s110 -18 164 -18c110 0 193.167 25.5 249.5 76.5s84.5 112.167 84.5 183.5c0 48 -13 91 -39 129s-75.667 86.667 -149 146l-88 70c-104 84 -169.833 151.667 -197.5 203s-41.5 107 -41.5 167
c0 110 44 207.833 132 293.5s218.333 128.5 391 128.5c120.667 0 249 -21.333 385 -64l-36 -177c-136.667 56 -258.334 84 -365.001 84c-86 0 -157 -20.667 -213 -62s-84 -97 -84 -167c0 -46 12.167 -85.667 36.5 -119s76.833 -82.666 157.5 -147.999l92 -74
c76.667 -61.333 134.334 -121.833 173.001 -181.5s58 -126.5 58 -200.5c0 -118.667 -47.5 -222.5 -142.5 -311.5s-243.5 -133.5 -445.5 -133.5c-57.333 0 -110.5 3.5 -159.5 10.5s-122.167 26.167 -219.5 57.5z" />
    <glyph glyph-name="T" unicode="T" horiz-adv-x="1277" 
d="M534 0l263 1323h-525l31 157h1261l-31 -157h-526l-263 -1323h-210z" />
    <glyph glyph-name="U" unicode="U" horiz-adv-x="1419" 
d="M471 1480l220.997 0.000976562l-194 -973c-9.33301 -49.333 -14 -95.333 -14 -138c0 -83.333 28.167 -146 84.5 -188s126.5 -63 210.5 -63c96.667 0 176.834 30.833 240.501 92.5s110.834 170.5 141.501 326.5l188 943h183l-180 -909
c-30 -150.667 -68.333 -265.834 -115 -345.501s-113.667 -143.334 -201 -191.001s-188.666 -71.5 -303.999 -71.5c-132.667 0 -243.5 33.333 -332.5 100s-133.5 166.334 -133.5 299.001c0 58.667 6.66699 122 20 190z" />
    <glyph glyph-name="V" unicode="V" horiz-adv-x="1406" 
d="M600 0l-283 1480h214l231 -1205l694 1205h204l-850 -1480h-210z" />
    <glyph glyph-name="W" unicode="W" horiz-adv-x="1814" 
d="M421 0l-79 1480h196l64 -1163l519 1163h197l31 -1135l540 1135h183l-702 -1480h-208l-31 1121l-501 -1121h-209z" />
    <glyph glyph-name="X" unicode="X" horiz-adv-x="1271" 
d="M8 0l659 769l-328 711h231l249 -534l459 534h219l-602 -703l359 -777h-231l-280 600l-517 -600h-218z" />
    <glyph glyph-name="Y" unicode="Y" horiz-adv-x="1246" 
d="M520 0l132 666l-342 814h226l263 -623l493 623h210l-640 -813l-132 -667h-210z" />
    <glyph glyph-name="Z" unicode="Z" horiz-adv-x="1184" 
d="M59 0l34 168l1008 1155h-729l31 157h989l-31 -157l-1008 -1155h807l-34 -168h-1067z" />
    <glyph glyph-name="bracketleft" unicode="[" horiz-adv-x="666" 
d="M114 -296l373 1875h395l-30 -148h-222l-314 -1579h222l-29 -148h-395z" />
    <glyph glyph-name="backslash" unicode="\" horiz-adv-x="987" 
d="M763 -296l-437 1875h152l437 -1875h-152z" />
    <glyph glyph-name="bracketright" unicode="]" horiz-adv-x="666" 
d="M808 1579l-373 -1875h-395l29 148h222l315 1579h-222l29 148h395z" />
    <glyph glyph-name="asciicircum" unicode="^" 
d="M889 1149l-530 -754h-175l759 1085l327 -1085h-154z" />
    <glyph glyph-name="underscore" unicode="_" horiz-adv-x="1024" 
d="M69 -148l29 148h827l-29 -148h-827z" />
    <glyph glyph-name="grave" unicode="`" horiz-adv-x="1160" 
d="M893 1283l-212 296h222l138 -296h-148z" />
    <glyph glyph-name="a" unicode="a" horiz-adv-x="1246" 
d="M851 0l89.001 444c-84 -141.333 -176.333 -254.833 -277 -340.5s-194.667 -128.5 -282 -128.5c-63.333 0 -113.833 27 -151.5 81s-56.5 114.333 -56.5 181c0 132.667 37.167 271.667 111.5 417s165.5 257.833 273.5 337.5s223.333 119.5 346 119.5
c23.333 0 48.666 -2 75.999 -6s56.333 -10.333 87 -19h198l-216 -1086h-198zM986.001 679l50.998 252.001c-24 12.667 -48.667 22.167 -74 28.5s-51.666 9.5 -78.999 9.5c-75.333 0 -152 -31.333 -230 -94s-142.667 -154 -194 -274s-77 -228.667 -77 -326
c0 -30.667 6.83301 -56.334 20.5 -77.001s34.167 -31 61.5 -31c98.667 0 272.334 170.667 521.001 512z" />
    <glyph glyph-name="b" unicode="b" horiz-adv-x="1246" 
d="M197 0l313.998 1579h197l-186 -937c84 141.333 176.333 254.666 277 339.999s195 128 283 128c62.667 0 112.834 -26.833 150.501 -80.5s56.5 -113.834 56.5 -180.501c0 -132.667 -37.167 -271.667 -111.5 -417s-165.5 -257.833 -273.5 -337.5s-223 -119.5 -345 -119.5
c-23.333 0 -48.666 2.16699 -75.999 6.5s-57 10.5 -89 18.5h-197zM474.998 407.002l-49.998 -253.001c24.667 -12 49.667 -21.167 75 -27.5s51.333 -9.5 78 -9.5c74.667 0 151.167 31.333 229.5 94s143.166 154 194.499 274s77 228.667 77 326
c0 30.667 -6.83301 56.334 -20.5 77.001s-33.834 31 -60.501 31c-100 0 -274.333 -170.667 -523 -512z" />
    <glyph glyph-name="c" unicode="c" horiz-adv-x="1031" 
d="M940 74c-150.667 -66 -284.334 -99 -401.001 -99c-114 0 -201.5 33.167 -262.5 99.5s-91.5 160.5 -91.5 282.5c0 129.333 31.833 251.666 95.5 366.999s148.167 208.5 253.5 279.5s214 106.5 326 106.5c76 0 160.667 -12 254 -36l-32 -158
c-78.667 30.667 -154 46 -226 46c-80.667 0 -155.5 -24.333 -224.5 -73s-125.667 -121.667 -170 -219s-66.5 -197.666 -66.5 -300.999c0 -81.333 19.333 -139.833 58 -175.5s86.334 -53.5 143.001 -53.5c28 0 62.167 4.66699 102.5 14s83.833 22 130.5 38
s96.667 39.333 150 70z" />
    <glyph glyph-name="d" unicode="d" horiz-adv-x="1246" 
d="M851 0l89 444c-84 -141.333 -176.333 -254.833 -277 -340.5s-194.667 -128.5 -282 -128.5c-63.333 0 -113.833 27 -151.5 81s-56.5 114.333 -56.5 181c0 132.667 37.167 271.667 111.5 417s165.5 257.833 273.5 337.5s223.333 119.5 346 119.5
c46.667 0 101 -8.33301 163 -25l99 493h197l-314 -1579h-198zM986 679l50.999 252.001c-48 25.333 -99 38 -153 38c-75.333 0 -152 -31.333 -230 -94s-142.667 -154 -194 -274s-77 -228.667 -77 -326c0 -30.667 6.83301 -56.334 20.5 -77.001s34.167 -31 61.5 -31
c98.667 0 272.334 170.667 521.001 512z" />
    <glyph glyph-name="e" unicode="e" horiz-adv-x="1084" 
d="M1029 109c-172 -89.333 -333.997 -134.002 -485.997 -134.002c-114 0 -202.167 33.333 -264.5 100s-93.5 157.334 -93.5 272.001c0 124.667 28.667 245.334 86 362.001s135.166 212.667 233.499 288s205.166 113 320.499 113c80 0 141.333 -19 184 -57
s64 -91.333 64 -160c0 -82 -26.167 -157.5 -78.5 -226.5s-130.333 -127.5 -234 -175.5s-229.5 -78 -377.5 -90c0 -92.667 20.167 -160.667 60.5 -204s92.833 -65 157.5 -65c51.333 0 120.166 13.5 206.499 40.5s172.833 69.167 259.5 126.5zM401.003 547.998
c119.333 11.333 210.831 30.667 274.498 58s114 63.833 151 109.5s55.5 89.5 55.5 131.5c0 26.667 -10.833 51.5 -32.5 74.5s-49.5 34.5 -83.5 34.5c-46 0 -92 -14.667 -138 -44c-37.333 -23.333 -71.666 -54 -102.999 -92c-25.333 -30 -47.666 -62.833 -66.999 -98.5
s-38.333 -93.5 -57 -173.5z" />
    <glyph glyph-name="f" unicode="f" horiz-adv-x="783" 
d="M144 -395l265 1333h-173l30 148h173l9 49c30 148.667 103 270.667 219 366c43.333 35.333 87.833 61.333 133.5 78s99.5 25 161.5 25c58.667 0 122.334 -10 191.001 -30l-32 -157c-56.667 26 -116.334 39 -179.001 39c-72.667 0 -135 -27.667 -187 -83
s-90 -143 -114 -263l-5 -24h296l-30 -148h-296l-265 -1333h-197z" />
    <glyph glyph-name="g" unicode="g" horiz-adv-x="1246" 
d="M104 -333l33.999 173c138.667 -66 265.334 -99 380.001 -99c108 0 187.333 27.167 238 81.5s84.334 123.833 101.001 208.5l96 483c-64.667 -122.667 -126.667 -215.667 -186 -279s-119.333 -113.5 -180 -150.5s-118.667 -55.5 -174 -55.5c-58 0 -109 24.333 -153 73
s-66 120 -66 214c0 124.667 34.333 250 103 376s156 227.333 262 304s220 115 342 115c24 0 49.833 -2 77.5 -6s57.167 -10.333 88.5 -19h197l-208 -1047c-22 -112 -57 -198.5 -105 -259.5s-113.833 -109.333 -197.5 -145s-175.834 -53.5 -276.501 -53.5
c-126.667 0 -251 28.667 -373 86zM1036 931c-22 12.667 -46.002 22.167 -72.002 28.5s-54 9.5 -84 9.5c-68.667 0 -140.667 -28 -216 -84s-136.833 -137.167 -184.5 -243.5s-71.5 -203.166 -71.5 -290.499c0 -46.667 8.33301 -79.834 25 -99.501s36.334 -29.5 59.001 -29.5
c62 0 148.833 64.667 260.5 194s193.834 239.333 246.501 330z" />
    <glyph glyph-name="h" unicode="h" horiz-adv-x="1271" 
d="M197 0l313.998 1579h198l-187 -937c78.667 133.333 165.5 244.666 260.5 333.999s191.5 134 289.5 134c52.667 0 95.667 -16.167 129 -48.5s50 -84.833 50 -157.5c0 -46 -3.66699 -88.333 -11 -127l-155 -777h-197l156 783c3.33301 17.333 5 35.333 5 54
c0 22.667 -6 41 -18 55s-27 21 -45 21c-53.333 0 -119.666 -42 -198.999 -126s-184.666 -219 -315.999 -405l-77 -382h-197z" />
    <glyph glyph-name="i" unicode="i" horiz-adv-x="592" 
d="M197 0l216 1086h198l-217 -1086h-197zM452 1283l40 197h197l-39 -197h-198z" />
    <glyph glyph-name="j" unicode="j" horiz-adv-x="666" 
d="M-225 -389l33.001 167c72.667 -32.667 136.667 -49 192 -49c70.667 0 130.167 28 178.5 84s81.833 131.333 100.5 226l209 1047h197l-186 -938c-30.667 -153.333 -69.834 -266.333 -117.501 -339s-107.667 -129 -180 -169s-150.833 -60 -235.5 -60
c-65.333 0 -129 10.333 -191 31zM527.001 1283l39 197h198l-40 -197h-197z" />
    <glyph glyph-name="k" unicode="k" horiz-adv-x="1178" 
d="M198 0l314 1579h198l-199 -998l519 505h231l-518 -508l406 -578h-225l-413 581l-116 -581h-197z" />
    <glyph glyph-name="l" unicode="l" horiz-adv-x="592" 
d="M197 0l314 1579h198l-315 -1579h-197z" />
    <glyph glyph-name="m" unicode="m" horiz-adv-x="1912" 
d="M197 0l216 1086h197l-88 -444c56 109.333 136.333 214.666 241 315.999s206.334 152 305.001 152c43.333 0 81.666 -14.5 114.999 -43.5s50 -77.5 50 -145.5c0 -36.667 -5 -80.334 -15 -131.001l-30 -148c72 128.667 157.333 238.834 256 330.501
s195.667 137.5 291 137.5c42.667 0 80.667 -14.667 114 -44s50 -77.666 50 -144.999c0 -36 -5 -79.667 -15 -131l-157 -790h-198l157 790c3.33301 14.667 5 31.334 5 50.001c0 24.667 -6 43 -18 55s-24.667 18 -38 18c-80 0 -245.333 -172.667 -496 -518l-78 -395h-198
l157 790c3.33301 14 5 31 5 51c0 24 -6 42 -18 54s-24.667 18 -38 18c-78.667 0 -231 -154.667 -457 -464l-39 -54l-79 -395h-197z" />
    <glyph glyph-name="n" unicode="n" horiz-adv-x="1271" 
d="M197 0l215.998 1086h197l-88 -444c78.667 133.333 165.5 244.666 260.5 333.999s191.5 134 289.5 134c52.667 0 95.667 -16.167 129 -48.5s50 -84.833 50 -157.5c0 -46 -3.66699 -88.333 -11 -127l-155 -777h-197l156 783c3.33301 17.333 5 35.333 5 54
c0 22.667 -6 41 -18 55s-27 21 -45 21c-53.333 0 -119.666 -42 -198.999 -126s-184.666 -219 -315.999 -405l-77 -382h-197z" />
    <glyph glyph-name="o" unicode="o" horiz-adv-x="1160" 
d="M538 -25c-120.667 0 -210.5 35 -269.5 105s-88.5 157 -88.5 261c0 128.667 30.833 256 92.5 382s139 222 232 288s201.833 99 326.5 99c125.333 0 216.833 -35.167 274.5 -105.5s86.5 -156.833 86.5 -259.5c0 -128 -30.5 -254.5 -91.5 -379.5
s-137.5 -221.333 -229.5 -289s-203 -101.5 -333 -101.5zM582 123c110.667 0 205 60.166 283 180.499s117 253.5 117 399.5c0 86.667 -16.5 151.5 -49.5 194.5s-82.5 64.5 -148.5 64.5c-106 0 -198.167 -59.667 -276.5 -179s-117.5 -252.666 -117.5 -399.999
c0 -85.333 16.5 -150 49.5 -194s80.5 -66 142.5 -66z" />
    <glyph glyph-name="p" unicode="p" horiz-adv-x="1246" 
d="M119 -395l294.999 1481h197l-88 -444c83.333 141.333 175.5 254.666 276.5 339.999s195.167 128 282.5 128c62.667 0 112.834 -26.5 150.501 -79.5s56.5 -114.167 56.5 -183.5c0 -131.333 -36.833 -269.333 -110.5 -414s-164.667 -257.167 -273 -337.5
s-223.833 -120.5 -346.5 -120.5c-46 0 -100.667 8.33301 -164 25l-79 -395h-197zM475.999 407.001l-49.999 -252.999c48.667 -24.667 99.667 -37 153 -37c74.667 0 151.167 31.333 229.5 94s143.166 154 194.499 274s77 228.667 77 326c0 31.333 -7 57.166 -21 77.499
s-34.333 30.5 -61 30.5c-99.333 0 -273.333 -170.667 -522 -512z" />
    <glyph glyph-name="q" unicode="q" horiz-adv-x="1246" 
d="M773 -395l167.001 839c-84 -141.333 -176.333 -254.833 -277 -340.5s-194.667 -128.5 -282 -128.5c-63.333 0 -113.833 27 -151.5 81s-56.5 114.333 -56.5 181c0 132.667 37.167 271.667 111.5 417s165.5 257.833 273.5 337.5s223.333 119.5 346 119.5
c23.333 0 48.666 -2 75.999 -6s56.333 -10.333 87 -19h198l-295 -1481h-197zM986.001 679l50.998 252.001c-24 12.667 -48.667 22.167 -74 28.5s-51.666 9.5 -78.999 9.5c-75.333 0 -152 -31.333 -230 -94s-142.667 -154 -194 -274s-77 -228.667 -77 -326
c0 -30.667 6.83301 -56.334 20.5 -77.001s34.167 -31 61.5 -31c98.667 0 272.334 170.667 521.001 512z" />
    <glyph glyph-name="r" unicode="r" horiz-adv-x="978" 
d="M197 0l216.001 1086h197l-88 -444c51.333 89.333 112 172.5 182 249.5s132.667 132.833 188 167.5s116.666 52 183.999 52c14.667 0 31.334 -1 50.001 -3l-43 -216c-28.667 10 -54 15 -76 15c-64.667 0 -132.834 -35.333 -204.501 -106
s-182.167 -210.334 -331.5 -419.001l-77 -382h-197z" />
    <glyph glyph-name="s" unicode="s" horiz-adv-x="1001" 
d="M156 58l33.0029 165.998c136.667 -67.333 250.667 -101 342 -101c55.333 0 98.666 13 129.999 39s47 59.667 47 101c0 26 -6.33301 49.5 -19 70.5s-37 50.167 -73 87.5l-91 93c-76.667 78.667 -125 138.5 -145 179.5s-30 81.167 -30 120.5c0 69.333 30.667 136 92 200
s155.333 96 282 96c38 0 77.167 -2.83301 117.5 -8.5s102.5 -23.834 186.5 -54.501l-33 -166c-82 38.667 -141 61.834 -177 69.501s-70.667 11.5 -104 11.5c-57.333 0 -99.5 -12.5 -126.5 -37.5s-40.5 -54.833 -40.5 -89.5c0 -22.667 6 -44.667 18 -66s42 -56.333 90 -105
l99 -100c54.667 -55.333 93.5 -104.333 116.5 -147s34.5 -89 34.5 -139c0 -90 -35 -163 -105 -219s-165 -84 -285 -84c-34.667 0 -70.834 2.83301 -108.501 8.5s-73.834 13.334 -108.501 23.001s-82 26.834 -142 51.501z" />
    <glyph glyph-name="t" unicode="t" horiz-adv-x="784" 
d="M678 -5c-44.667 -13.333 -85.998 -20 -123.998 -20c-88.667 0 -156.834 21.667 -204.501 65s-71.5 98.333 -71.5 165c0 42.667 6 95 18 157l115 576h-173l29 148h173l39 197l203 25l-44 -222h259l-30 -148h-259l-118 -594c-11.333 -56 -17 -93 -17 -111
c0 -28.667 9.16699 -54.167 27.5 -76.5s50.833 -33.5 97.5 -33.5c31.333 0 67.666 6.66699 108.999 20z" />
    <glyph glyph-name="u" unicode="u" horiz-adv-x="1271" 
d="M1291 1086l-216.002 -1086h-198l89 444c-78.667 -133.333 -165.5 -244.833 -260.5 -334.5s-191.5 -134.5 -289.5 -134.5c-52 0 -95 16.167 -129 48.5s-51 85.833 -51 160.5c0 44 4 85.333 12 124l154 778h198l-156 -784c-3.33301 -16 -5 -33.667 -5 -53
c0 -23.333 5.83301 -41.833 17.5 -55.5s26.834 -20.5 45.501 -20.5c54.667 0 123.334 44.667 206.001 134s185.667 221.333 309 396l76 383h198z" />
    <glyph glyph-name="v" unicode="v" horiz-adv-x="1109" 
d="M414 0l-138 1086h186l107 -867l531 867h189l-676 -1086h-199z" />
    <glyph glyph-name="w" unicode="w" horiz-adv-x="1600" 
d="M350 0l-99 1086h186l76 -824l396 824h193l55 -824l418 824h178l-554 -1086h-199l-52 827l-398 -827h-200z" />
    <glyph glyph-name="x" unicode="x" horiz-adv-x="1113" 
d="M51 0l523 569l-264 517h206l196 -388l349 388h199l-476 -527l289 -559h-209l-219 426l-393 -426h-201z" />
    <glyph glyph-name="y" unicode="y" horiz-adv-x="1126" 
d="M204 -395l248 395l-181 1086h202l139 -835l519 835h189l-927 -1481h-189z" />
    <glyph glyph-name="z" unicode="z" horiz-adv-x="1098" 
d="M111 0l30 148l748 790h-573l30 148h828l-30 -148l-748 -790h645l-29 -148h-901z" />
    <glyph glyph-name="braceleft" unicode="{" horiz-adv-x="666" 
d="M876 1579l-30.002 -148.003c-75.333 -6.66699 -126.666 -31.667 -153.999 -75s-43.333 -108 -48 -194l-5 -83c-5.33301 -109.333 -28 -200.166 -68 -272.499s-103.333 -127.166 -190 -164.499c32 -23.333 55.5 -45.333 70.5 -66s26.5 -44.5 34.5 -71.5
s12 -53.833 12 -80.5c0 -67.333 -13.667 -135.333 -41 -204l-45 -116c-13.333 -32 -24.666 -60.833 -33.999 -86.5s-14 -46.5 -14 -62.5c0 -34 14 -59 42 -75s70 -25.333 126 -28l-29 -148c-120 12 -202.167 39.5 -246.5 82.5s-66.5 94.167 -66.5 153.5
c0 56.667 18.333 130 55 220l41 104c31.333 76 47 136.667 47 182c0 38.667 -13.333 70.167 -40 94.5s-51 36.5 -73 36.5h-48l28 139h47c32.667 0 68.667 12.833 108 38.5s66.333 64 81 115s22 105.5 22 163.5l3 105c0 142.667 34.333 248.334 103 317.001
s172.667 110 312 124z" />
    <glyph glyph-name="bar" unicode="|" horiz-adv-x="476" 
d="M104 -296l373 1875h151l-373 -1875h-151z" />
    <glyph glyph-name="braceright" unicode="}" horiz-adv-x="666" 
d="M46 -296l29.0049 148.004c77.333 6.66699 129.166 31.667 155.499 75s42.166 108 47.499 194l4 83c6 108.667 28.833 199.167 68.5 271.5s103.167 127.833 190.5 166.5c-32.667 22.667 -56.334 44.167 -71.001 64.5s-26.167 44.166 -34.5 71.499s-12.5 54.333 -12.5 81
c0 67.333 13.667 135.666 41 204.999l46 115l33.5 86.5c9.66699 25.667 14.5 46.5 14.5 62.5c0 34 -14 59 -42 75s-70 25.333 -126 28l29 148c121.333 -12 203.666 -39.833 246.999 -83.5s65 -94.5 65 -152.5c0 -56 -18 -129.333 -54 -220l-42 -104
c-30.667 -76.667 -46 -137.334 -46 -182.001c0 -39.333 13.333 -71 40 -95s51 -36 73 -36h48l-28 -138h-48c-32.667 0 -68.5 -13 -107.5 -39s-65.833 -64.5 -80.5 -115.5s-22 -105.5 -22 -163.5l-4 -105c0 -142.667 -34.333 -248.334 -103 -317.001
s-172.334 -110 -311.001 -124z" />
    <glyph glyph-name="asciitilde" unicode="~" 
d="M193 444c19.333 96.667 61.332 175.667 125.999 237s136 92 214 92c34.667 0 66.834 -6 96.501 -18s64.834 -29.667 105.501 -53l96 -56l115 -69c30 -14.667 58.667 -22 86 -22c32 0 63.5 15.667 94.5 47s51.833 77.333 62.5 138h149
c-31.333 -120 -77 -205.5 -137 -256.5s-126.667 -76.5 -200 -76.5c-30.667 0 -58.834 3.66699 -84.501 11s-72.167 30.333 -139.5 69l-101 58l-106 62c-25.333 12 -48 18 -68 18c-26 0 -55 -12.5 -87 -37.5s-56.667 -72.833 -74 -143.5h-148z" />
    <glyph glyph-name="nonbreakingspace" unicode="&#xa0;" 
 />
    <glyph glyph-name="exclamdown" unicode="&#xa1;" horiz-adv-x="648" 
d="M639 1086l-39 -198h-198l40 198h197zM536 691l-133 -790l-59 -296h-197l59 296l182 790h148z" />
    <glyph glyph-name="cent" unicode="&#xa2;" 
d="M665 0l35.999 183c-105.333 0 -189.333 32.333 -252 97s-94 160 -94 286c0 108 22.833 212 68.5 312s111.334 189.5 197.001 268.5s187.167 133.5 304.5 163.5l34 170h99l-32 -159c104.667 -5.33301 190.667 -17.333 258 -36l-32 -161
c-79.333 30.667 -156.333 46 -231 46h-25l-166 -832c93.333 13.333 198 52.333 314 117l-34 -173c-60 -24.667 -110.5 -43.667 -151.5 -57s-93.5 -25.333 -157.5 -36l-38 -189h-98zM731.999 338l160.998 807.999c-98.667 -36.667 -178 -111 -238 -223s-90 -225 -90 -339
c0 -40.667 4.83301 -78.167 14.5 -112.5s25.834 -63.166 48.501 -86.499s57.334 -39 104.001 -47z" />
    <glyph glyph-name="sterling" unicode="&#xa3;" 
d="M253 0l34 173c60 19.333 106.667 44 140 74s57.333 65.5 72 106.5s28.667 95.833 42 164.5l39 198h-185l30 148h185l20 102c39.333 196 99.833 336.833 181.5 422.5s187.167 128.5 316.5 128.5c82 0 167.667 -14.333 257 -43l-32 -162c-99.333 38 -184 57 -254 57
c-66.667 0 -119.334 -20.5 -158.001 -61.5s-67 -106.833 -85 -197.5l-49 -246h210l-29 -148h-210l-28 -140c-15.333 -78 -31.666 -139.333 -48.999 -184s-39 -84.5 -65 -119.5s-63 -68.167 -111 -99.5h601l-34 -173h-839z" />
    <glyph glyph-name="currency" unicode="&#xa4;" 
d="M493 1007l-155 195.999l104 87l156 -195c95.333 59.333 190.333 89 285 89c47.333 0 91.833 -7.33301 133.5 -22s80.5 -37 116.5 -67l234 195l69 -87l-234 -196c30.667 -54.667 46 -113.667 46 -177c0 -131.333 -51 -250.333 -153 -357l156 -195l-104 -87l-156 195
c-95.333 -60 -190.333 -90 -285 -90c-47.333 0 -91.833 7.5 -133.5 22.5s-80.5 37.5 -116.5 67.5l-234 -195l-69 87l234 195c-30.667 54.667 -46 113.334 -46 176.001c0 132.667 50.667 252 152 358zM493 685.999c0 -74 22.667 -132.834 68 -176.501
s103.333 -65.5 174 -65.5c63.333 0 122.333 16.333 177 49s99 77.167 133 133.5s51 113.5 51 171.5c0 70.667 -22.5 128 -67.5 172s-103.167 66 -174.5 66c-62 0 -120.167 -15.833 -174.5 -47.5s-99 -75.667 -134 -132s-52.5 -113.166 -52.5 -170.499z" />
    <glyph glyph-name="yen" unicode="&#xa5;" 
d="M558 0l69 345h-296l29 148h297l19 99h-296l30 148h296l-352 740h219l274 -578l499 578h196l-639 -740h296l-29 -148h-296l-20 -99h296l-29 -148h-297l-68 -345h-198z" />
    <glyph glyph-name="brokenbar" unicode="&#xa6;" horiz-adv-x="476" 
d="M104 -296l147 740h151l-147 -740h-151zM330 839l147 740h151l-147 -740h-151z" />
    <glyph glyph-name="section" unicode="&#xa7;" 
d="M189 -264l36.001 180.999c141.333 -68 273.333 -102 396 -102c78 0 144.333 19.333 199 58s82 89.334 82 152.001c0 36.667 -10 68.667 -30 96c-20 26.667 -75.667 60.667 -167 102l-108 49c-89.333 40 -155.333 83.333 -198 130c-43.333 46.667 -65 104 -65 172
c0 121.333 69.333 236.333 208 345c-34.667 28.667 -60.667 61.167 -78 97.5s-26 76.5 -26 120.5c0 98 42.333 185.833 127 263.5s216 116.5 394 116.5c110.667 0 219.334 -11 326.001 -33l-34 -169c-120 36 -234 54 -342 54c-80 0 -147.5 -18.5 -202.5 -55.5
s-82.5 -85.5 -82.5 -145.5c0 -38.667 11.667 -72 35 -100s63.666 -56.333 120.999 -85l127 -64c84.667 -42.667 142.667 -78.5 174 -107.5s54.5 -60 69.5 -93s22.5 -70.167 22.5 -111.5c0 -121.333 -63.333 -233 -190 -335c38.667 -30 67.667 -63.167 87 -99.5
s29 -75.833 29 -118.5c0 -96.667 -42.833 -185.5 -128.5 -266.5s-213.834 -121.5 -384.501 -121.5c-128 0 -260.333 23.333 -397 70zM872.001 346.999c35.333 31.333 65.5 67.333 90.5 108s37.5 77.334 37.5 110.001c0 20 -4 38.5 -12 55.5s-21.667 34.167 -41 51.5
s-61.333 42.666 -126 75.999l-171 90c-39.333 -32.667 -71 -68.167 -95 -106.5s-36 -74.166 -36 -107.499s8.5 -62.333 25.5 -87s63.5 -56.334 139.5 -95.001z" />
    <glyph glyph-name="dieresis" unicode="&#xa8;" horiz-adv-x="1160" 
d="M585 1283l34 173h173l-34 -173h-173zM980 1283l34 173h173l-34 -173h-173z" />
    <glyph glyph-name="copyright" unicode="&#xa9;" horiz-adv-x="1758" 
d="M1030 -37c-134 0 -260.5 33 -379.5 99s-215 159.667 -288 281s-109.5 253.666 -109.5 396.999c0 140.667 35 270.834 105 390.501s165 214 285 283s249 103.5 387 103.5s267.167 -34.5 387.5 -103.5s215.333 -163.333 285 -283s104.5 -249.834 104.5 -390.501
c0 -143.333 -36.5 -275.666 -109.5 -396.999s-169 -215 -288 -281s-245.5 -99 -379.5 -99zM1030 74c127.333 0 240 29.333 338 88s177.167 142.334 237.5 251.001s90.5 217.667 90.5 327c0 108 -29.333 216 -88 324s-137.5 192 -236.5 252s-212.833 90 -341.5 90
c-128 0 -241.5 -30 -340.5 -90s-178 -144 -237 -252s-88.5 -216 -88.5 -324c0 -111.333 31 -221.833 93 -331.5s141.5 -192.834 238.5 -249.501s208.5 -85 334.5 -85zM1237 339c-93.333 -28.667 -178.333 -42.999 -255 -42.999c-72 0 -135.833 12.333 -191.5 37
s-98.5 65.834 -128.5 123.501s-45 117.5 -45 179.5c0 90 23.333 178.667 70 266s108.334 155.166 185.001 203.499s164.667 72.5 264 72.5c79.333 0 165.333 -16.333 258 -49l-22 -111c-84.667 41.333 -162.667 62 -234 62c-65.333 0 -127 -19 -185 -57
s-103.833 -90.667 -137.5 -158s-50.5 -137 -50.5 -209c0 -70.667 20.333 -130.834 61 -180.501s101.667 -74.5 183 -74.5s165.666 20.667 252.999 62z" />
    <glyph glyph-name="ordfeminine" unicode="&#xaa;" horiz-adv-x="802" 
d="M671 740l114 296h-43c-65.333 -100 -130.833 -178.333 -196.5 -235s-122.5 -85 -170.5 -85c-41.333 0 -73.333 16.833 -96 50.5s-34 80.5 -34 140.5c0 91.333 23.5 187 70.5 287s105.667 175.833 176 227.5s142.833 77.5 217.5 77.5c18.667 0 40.167 -1.5 64.5 -4.5
s51.5 -7.83301 81.5 -14.5h173l-148 -740h-209zM808 1246l21 105c-22 12.667 -45 22 -69 28s-48.667 9 -74 9c-82 0 -147.333 -50.667 -196 -152s-73 -195.333 -73 -282c0 -44.667 10.333 -66.667 31 -66c10.667 0.666992 26 8.5 46 23.5s53.833 47 101.5 96
s87.5 92.167 119.5 129.5z" />
    <glyph glyph-name="guillemotleft" unicode="&#xab;" horiz-adv-x="1080" 
d="M1185 901l-376 -358l209 -376l-105 -68l-302 444l487 444zM778 901l-377 -358l210 -376l-105 -68l-302 444l487 444z" />
    <glyph glyph-name="logicalnot" unicode="&#xac;" 
d="M242 691l29 148h1086l-98 -494h-148l69 346h-938z" />
    <glyph glyph-name="sfthyphen" unicode="&#xad;" horiz-adv-x="642" 
d="M207 543l29 148h444l-29 -148h-444z" />
    <glyph glyph-name="registered" unicode="&#xae;" 
d="M858 629c-78.667 0 -151.832 19.167 -219.499 57.5s-122 92.166 -163 161.499s-61.5 144.333 -61.5 225c0 79.333 19.833 153.5 59.5 222.5s93.667 123.167 162 162.5s142.5 59 222.5 59s154.333 -19.667 223 -59s122.667 -93.5 162 -162.5s59 -143.167 59 -222.5
c0 -80.667 -20.5 -155.667 -61.5 -225s-95.333 -123.166 -163 -161.499s-140.834 -57.5 -219.501 -57.5zM858.002 728c56.667 0 112.168 14.5 166.501 43.5s97.833 71 130.5 126s49 113.5 49 175.5c0 60.667 -15.5 118 -46.5 172s-74 96.5 -129 127.5
s-111.833 46.5 -170.5 46.5s-115.5 -15.5 -170.5 -46.5s-97.833 -73.5 -128.5 -127.5s-46 -111.333 -46 -172c0 -62 16.167 -120.5 48.5 -175.5s75.666 -97 129.999 -126s109.833 -43.5 166.5 -43.5zM664.003 802l108 542.999h127c76 0 127.333 -11 154 -33
s40 -53.333 40 -94c0 -45.333 -14 -82.666 -42 -111.999s-59.667 -50 -95 -62l82 -242h-106l-76 222h-49l-44 -222h-99zM822.003 1098h54c42 0 71.833 12.167 89.5 36.5s26.5 48.5 26.5 72.5c0 21.333 -8.33301 37.333 -25 48s-41.667 16 -75 16h-36z" />
    <glyph glyph-name="degree" unicode="&#xb0;" horiz-adv-x="555" 
d="M541 1172c-48.667 0 -89.667 17.5 -123 52.5s-50 75.167 -50 120.5c0 44.667 16.5 84.5 49.5 119.5s74.167 52.5 123.5 52.5c48.667 0 89.5 -17.5 122.5 -52.5s49.5 -74.833 49.5 -119.5c0 -45.333 -16.5 -85.5 -49.5 -120.5s-73.833 -52.5 -122.5 -52.5zM541 1258
c20 0 39.332 8.16699 57.999 24.5s28 37.166 28 62.499s-9.5 46 -28.5 62s-38.167 24 -57.5 24c-20 0 -39.5 -8 -58.5 -24s-28.5 -36.667 -28.5 -62s9.33301 -46.166 28 -62.499s38.334 -24.5 59.001 -24.5z" />
    <glyph glyph-name="plusminus" unicode="&#xb1;" 
d="M105 0l29 148h1086l-29 -148h-1086zM633 296l73 370h-469l30 148h469l74 370h148l-74 -370h469l-30 -148h-469l-73 -370h-148z" />
    <glyph glyph-name="twosuperior" unicode="&#xb2;" horiz-adv-x="802" 
d="M264 740l27.998 141.999c57.333 64 138.666 132 243.999 204l101 69c89.333 60.667 134 113 134 157c0 25.333 -10.833 45.333 -32.5 60s-49.5 22 -83.5 22c-84 0 -175.667 -24 -275 -72l30 151c84.667 29.333 177.334 44 278.001 44c80 0 142.5 -16 187.5 -48
s67.5 -75.333 67.5 -130c0 -42 -12.167 -81.167 -36.5 -117.5s-83.166 -85.833 -176.499 -148.5l-70 -47c-59.333 -40 -99.666 -69.167 -120.999 -87.5s-37.333 -37.166 -48 -56.499h393l-28 -142h-592z" />
    <glyph glyph-name="threesuperior" unicode="&#xb3;" horiz-adv-x="802" 
d="M289 756l24.999 122.999c96 -26.667 172.667 -40 230 -40c41.333 0 78.833 11.5 112.5 34.5s50.5 52.167 50.5 87.5c0 42.667 -20 72.667 -60 90s-97 26 -171 26h-25l25 123h37c80.667 0 142.334 13.333 185.001 40s64 55.667 64 87c0 22.667 -10.5 39.5 -31.5 50.5
s-52.5 16.5 -94.5 16.5c-66.667 0 -142 -10.333 -226 -31l25 128c81.333 17.333 163.333 26 246 26c84.667 0 148.167 -12 190.5 -36s63.5 -60.333 63.5 -109c0 -49.333 -19.833 -93.5 -59.5 -132.5s-99.167 -72.833 -178.5 -101.5c20 -4.66699 37.667 -9.66699 53 -15
c38.667 -12 70 -32 94 -60s36 -61 36 -99c0 -52 -23 -100.667 -69 -146c-33.333 -33.333 -73 -58.666 -119 -75.999s-94.667 -26 -146 -26c-78 0 -163.667 13.333 -257 40z" />
    <glyph glyph-name="acute" unicode="&#xb4;" horiz-adv-x="1160" 
d="M727 1283l256 296h235l-343 -296h-148z" />
    <glyph glyph-name="mu" unicode="&#xb5;" horiz-adv-x="1283" 
d="M139 -296l275.001 1382h197l-148 -747c-6.66699 -31.333 -10 -58.666 -10 -81.999c0 -20 6.33301 -39 19 -57s34.667 -27 66 -27c65.333 0 143.666 53.833 234.999 161.5s175.666 226.5 252.999 356.5l79 395h197l-216 -1086h-197l88 444
c-72.667 -165.333 -148.667 -284.833 -228 -358.5s-155.666 -110.5 -228.999 -110.5c-17.333 0 -35 1.33301 -53 4s-41 13.667 -69 33l-62 -308h-197z" />
    <glyph glyph-name="paragraph" unicode="&#xb6;" 
d="M490 -296l206 1036c-86.667 16.667 -156 45 -208 85s-91.833 87.5 -119.5 142.5s-41.5 114.833 -41.5 179.5c0 62.667 12.833 120.5 38.5 173.5s63.167 92.833 112.5 119.5s130 40 242 40h518l-353 -1776h-123l328 1653h-148l-328 -1653h-124z" />
    <glyph glyph-name="cedilla" unicode="&#xb8;" horiz-adv-x="1160" 
d="M397 -375l18.001 84.001c23.333 -6.66699 43 -10 59 -10c40 0 68.833 8.66699 86.5 26s26.5 36.666 26.5 57.999c0 18 -6 33.333 -18 46s-40.667 25 -86 37l106 134l94 -1l-79 -102c50.667 -18 83.5 -38.833 98.5 -62.5s22.5 -47.167 22.5 -70.5
c0 -24 -8.83301 -49.5 -26.5 -76.5s-43.334 -47.5 -77.001 -61.5s-69.5 -21 -107.5 -21c-34 0 -73 6.66699 -117 20z" />
    <glyph glyph-name="onesuperior" unicode="&#xb9;" horiz-adv-x="802" 
d="M468 740l128 642h-124l20 98l303 37l-154 -777h-173z" />
    <glyph glyph-name="ordmasculine" unicode="&#xba;" horiz-adv-x="802" 
d="M473 715c-72 0 -130.835 18.999 -176.502 56.999s-68.5 95.667 -68.5 173c0 94.667 26.167 186.667 78.5 276s120.833 161.166 205.5 215.499s174.334 81.5 269.001 81.5c76 0 136.5 -19.167 181.5 -57.5s67.5 -96.166 67.5 -173.499
c0 -93.333 -25.667 -184.166 -77 -272.499s-119.666 -160.333 -204.999 -216s-177 -83.5 -275 -83.5zM544.998 850.999c49.333 0 96.832 21.6689 142.499 65.002s83.334 96.166 113.001 158.499s44.5 119.166 44.5 170.499c0 39.333 -12.167 72 -36.5 98
s-55.833 39 -94.5 39c-49.333 0 -97 -21.333 -143 -64s-83.833 -95.5 -113.5 -158.5s-44.5 -120.5 -44.5 -172.5c0 -38 12 -70.167 36 -96.5s56 -39.5 96 -39.5z" />
    <glyph glyph-name="guillemotright" unicode="&#xbb;" horiz-adv-x="1080" 
d="M111 185l376 358l-209 376l104 68l303 -444l-488 -444zM518 185l376 358l-209 376l105 68l302 -444l-488 -444z" />
    <glyph glyph-name="onequarter" unicode="&#xbc;" horiz-adv-x="1770" 
d="M413 740l128 642h-123l19 98l304 37l-155 -777h-173zM1358 0l40 197h-395l29 148l464 408h185l-84 -420h124l-27 -136h-124l-39 -197h-173zM1187 333h238l50 254zM184 -37l1358 1554h196l-1358 -1554h-196z" />
    <glyph glyph-name="onehalf" unicode="&#xbd;" horiz-adv-x="1770" 
d="M409 740l128 642h-124l20 98l303 37l-154 -777h-173zM1091 0l28.001 141.999c56 63.333 137.333 131.333 244 204l101 69c88.667 60.667 133 113 133 157c0 25.333 -10.833 45.333 -32.5 60s-49.5 22 -83.5 22c-82.667 0 -174 -24 -274 -72l30 151
c84.667 29.333 177.667 44 279 44c78.667 0 140.667 -16 186 -48s68 -75.333 68 -130c0 -41.333 -11.833 -80.166 -35.5 -116.499s-82.834 -86.166 -177.501 -149.499l-71 -48c-58.667 -39.333 -98.667 -68.333 -120 -87s-37.333 -37.334 -48 -56.001h393l-28 -142h-592z
M183.001 -37.001l1358 1554h196l-1358 -1554h-196z" />
    <glyph glyph-name="threequarters" unicode="&#xbe;" horiz-adv-x="1770" 
d="M210 756l24.999 122.999c96 -26.667 172.667 -40 230 -40c41.333 0 78.833 11.5 112.5 34.5s50.5 52.167 50.5 87.5c0 42.667 -20 72.667 -60 90s-97 26 -171 26h-25l25 123h37c80.667 0 142.334 13.333 185.001 40s64 55.667 64 87c0 22.667 -10.5 39.5 -31.5 50.5
s-52.5 16.5 -94.5 16.5c-66.667 0 -142 -10.333 -226 -31l25 128c81.333 17.333 163.333 26 246 26c84.667 0 148.167 -12 190.5 -36s63.5 -60.333 63.5 -109c0 -49.333 -19.833 -93.5 -59.5 -132.5s-99.167 -72.833 -178.5 -101.5c20 -4.66699 37.667 -9.66699 53 -15
c38.667 -12 70 -32 94 -60s36 -61 36 -99c0 -52 -23 -100.667 -69 -146c-33.333 -33.333 -73 -58.666 -119 -75.999s-94.667 -26 -146 -26c-78 0 -163.667 13.333 -257 40zM1358 -0.000976562l39 197h-395l30 148l463 408h185l-83 -420h123l-27 -136h-123l-39 -197h-173z
M1186 332.999h238l51 254zM220.999 -37.001l1358 1554h196l-1358 -1554h-196z" />
    <glyph glyph-name="questiondown" unicode="&#xbf;" horiz-adv-x="950" 
d="M885 1086l-39 -198h-197l39 198h197zM807 691l-2.99902 -11.999c-18 -90 -41.167 -157.333 -69.5 -202s-71.5 -95.334 -129.5 -152.001l-110 -108c-107.333 -104.667 -169.833 -176.167 -187.5 -214.5s-26.5 -77.833 -26.5 -118.5
c0 -50.667 20.167 -91.334 60.5 -122.001s98.833 -46 175.5 -46c40.667 0 82.167 3.66699 124.5 11s109.833 31 202.5 71l-35 -172c-52 -18 -94.333 -30.167 -127 -36.5s-68.667 -11.5 -108 -15.5s-78.333 -6 -117 -6c-119.333 0 -213.5 25.833 -282.5 77.5
s-103.5 122.5 -103.5 212.5c0 71.333 20.5 139.5 61.5 204.5s113.5 141.5 217.5 229.5l79 66c30.667 26 63.167 62.333 97.5 109s61.166 117.334 80.499 212.001l2 12h198z" />
    <glyph glyph-name="Agrave" unicode="&#xc0;" horiz-adv-x="1406" 
d="M36 0l852 1480h209l286 -1480h-212l-75 381h-636l-218 -381h-206zM549 538h517l-137 668zM1038 1604l-212 296h222l138 -296h-148z" />
    <glyph glyph-name="Aacute" unicode="&#xc1;" horiz-adv-x="1406" 
d="M36 0l852 1480h209l286 -1480h-212l-75 381h-636l-218 -381h-206zM549 538h517l-137 668zM883 1604l256 296h235l-343 -296h-148z" />
    <glyph glyph-name="Acircumflex" unicode="&#xc2;" horiz-adv-x="1406" 
d="M36 0l852 1480h209l286 -1480h-212l-75 381h-636l-218 -381h-206zM549 538h517l-137 668zM674 1604l293 296h210l139 -296h-149l-123 185l-210 -185h-160z" />
    <glyph glyph-name="Atilde" unicode="&#xc3;" horiz-adv-x="1406" 
d="M36 0l852 1480h209l286 -1480h-212l-75 381h-636l-218 -381h-206zM549 538h517l-137 668zM684 1604c16.667 85.333 45.999 145.668 87.999 181.001s86.333 53 133 53c34 0 70.333 -10.333 109 -31l48 -26c36 -19.333 61 -29 75 -29c38.667 0 64.334 28.667 77.001 86h124
c-16.667 -84.667 -46.167 -144.834 -88.5 -180.501s-86.5 -53.5 -132.5 -53.5c-34 0 -70.333 10.333 -109 31l-48 26c-36 19.333 -61 29 -75 29c-38.667 0 -64.667 -28.667 -78 -86h-123z" />
    <glyph glyph-name="Adieresis" unicode="&#xc4;" horiz-adv-x="1406" 
d="M36 0l852 1480h209l286 -1480h-212l-75 381h-636l-218 -381h-206zM549 538h517l-137 668zM729 1604l34 173h173l-34 -173h-173zM1124 1604l34 173h173l-34 -173h-173z" />
    <glyph glyph-name="Aring" unicode="&#xc5;" horiz-adv-x="1406" 
d="M549 538h517l-137 668zM36 0l854 1476c-19.333 18.667 -33.833 38.334 -43.5 59.001s-14.5 42.334 -14.5 65.001c0 44.667 15.833 82.667 47.5 114s69.167 47 112.5 47s81 -15.5 113 -46.5s48 -69.167 48 -114.5c0 -21.333 -3.33301 -39.833 -10 -55.5
s-19 -34.834 -37 -57.501l-8 -10l285 -1477h-212l-75 381h-636l-218 -381h-206zM992 1514c24 0 44.333 8.49902 61 25.499s25 37.5 25 61.5c0 23.333 -8.33301 43.5 -25 60.5s-37 25.5 -61 25.5s-44.333 -8.5 -61 -25.5s-25 -37.167 -25 -60.5s8.33301 -43.666 25 -60.999
s37 -26 61 -26z" />
    <glyph glyph-name="AE" unicode="&#xc6;" horiz-adv-x="1828" 
d="M1 0l1141 1480h877l-31 -157h-616l-95 -475h504l-30 -155h-505l-106 -536h659l-31 -157h-869l75 380h-470l-294 -380h-209zM622 535h383l132 663z" />
    <glyph glyph-name="Ccedilla" unicode="&#xc7;" horiz-adv-x="1391" 
d="M1328 86c-160.667 -63.333 -316.668 -102.997 -468.001 -118.997l-57 -76c98 -18 147 -58.333 147 -121c0 -42.667 -18.833 -80.834 -56.5 -114.501s-93.5 -50.5 -167.5 -50.5c-58 0 -113.333 8.66699 -166 26l16 84c39.333 -16.667 77 -25 113 -25
c33.333 0 61.333 7.16699 84 21.5s34 33.166 34 56.499c0 45.333 -41 74.666 -123 87.999l-20 3l83 104c-142 0 -264.833 45.833 -368.5 137.5s-155.5 228.5 -155.5 410.5c0 138.667 26.5 272.667 79.5 402s127.833 243.666 224.5 342.999
c85.333 88 178.5 153.667 279.5 197s219.167 65 354.5 65c131.333 0 269.666 -17 414.999 -51l-36 -183c-142.667 42.667 -239.334 66 -290.001 70s-88.667 6 -114 6c-178 0 -323.667 -60.667 -437 -182c-79.333 -86 -141.5 -186.667 -186.5 -302s-67.5 -227 -67.5 -335
c0 -127.333 34.833 -227.166 104.5 -299.499s169.834 -108.5 300.501 -108.5c48.667 0 103.334 4.5 164.001 13.5s176.334 44.5 347.001 106.5z" />
    <glyph glyph-name="Egrave" unicode="&#xc8;" horiz-adv-x="1121" 
d="M191 0l295 1480h826l-31 -157h-617l-94 -475h504l-30 -155h-505l-107 -536h660l-31 -157h-870zM913 1604l-212 296h222l138 -296h-148z" />
    <glyph glyph-name="Eacute" unicode="&#xc9;" horiz-adv-x="1121" 
d="M191 0l295 1480h826l-31 -157h-617l-94 -475h504l-30 -155h-505l-107 -536h660l-31 -157h-870zM797 1604l256 296h235l-343 -296h-148z" />
    <glyph glyph-name="Ecircumflex" unicode="&#xca;" horiz-adv-x="1121" 
d="M191 0l295 1480h826l-31 -157h-617l-94 -475h504l-30 -155h-505l-107 -536h660l-31 -157h-870zM612 1604l293 296h210l139 -296h-149l-123 185l-210 -185h-160z" />
    <glyph glyph-name="Edieresis" unicode="&#xcb;" horiz-adv-x="1121" 
d="M191 0l295 1480h826l-31 -157h-617l-94 -475h504l-30 -155h-505l-107 -536h660l-31 -157h-870zM667 1604l34 173h173l-34 -173h-173zM1062 1604l34 173h173l-34 -173h-173z" />
    <glyph glyph-name="Igrave" unicode="&#xcc;" horiz-adv-x="592" 
d="M191 0l295 1480h209l-294 -1480h-210zM639 1604l-212 296h222l138 -296h-148z" />
    <glyph glyph-name="Iacute" unicode="&#xcd;" horiz-adv-x="592" 
d="M191 0l295 1480h209l-294 -1480h-210zM463 1604l256 296h235l-343 -296h-148z" />
    <glyph glyph-name="Icircumflex" unicode="&#xce;" horiz-adv-x="592" 
d="M191 0l295 1480h209l-294 -1480h-210zM266 1604l293 296h210l139 -296h-149l-123 185l-210 -185h-160z" />
    <glyph glyph-name="Idieresis" unicode="&#xcf;" horiz-adv-x="592" 
d="M191 0l295 1480h209l-294 -1480h-210zM321 1604l34 173h173l-34 -173h-173zM716 1604l34 173h173l-34 -173h-173z" />
    <glyph glyph-name="Eth" unicode="&#xd0;" horiz-adv-x="1521" 
d="M191 0l134.997 679.001h-222l31 157h222l129 644h520c108.667 0 200.334 -9 275.001 -27s138.667 -56 192 -114c46.667 -50.667 79.167 -108.667 97.5 -174s27.5 -134 27.5 -206c0 -128 -24.167 -254.167 -72.5 -378.5s-116.833 -233.833 -205.5 -328.5
c-87.333 -94.667 -182.666 -160.334 -285.999 -197.001s-226.666 -55 -369.999 -55h-473zM430.997 157.001l214.001 0.000976562c121.333 0 220.166 14.167 296.499 42.5s143.833 74.166 202.5 137.499c72.667 78.667 129.5 172.5 170.5 281.5s61.5 219.167 61.5 330.5
c0 52.667 -8 102.167 -24 148.5s-39.667 83.833 -71 112.5c-56.667 50 -123.167 81.333 -199.5 94s-168.833 19 -277.5 19h-140l-99 -487h335l-31 -157h-335z" />
    <glyph glyph-name="Ntilde" unicode="&#xd1;" horiz-adv-x="1517" 
d="M193 0l295 1480h205l513 -1173l233 1173h180l-294 -1480h-206l-512 1174l-234 -1174h-180zM807 1604c16.667 85.333 45.999 145.668 87.999 181.001s86.333 53 133 53c34 0 70.333 -10.333 109 -31l48 -26c36 -19.333 61 -29 75 -29c38.667 0 64.334 28.667 77.001 86
h124c-16.667 -84.667 -46.167 -144.834 -88.5 -180.501s-86.5 -53.5 -132.5 -53.5c-34 0 -70.333 10.333 -109 31l-48 26c-36 19.333 -61 29 -75 29c-38.667 0 -64.667 -28.667 -78 -86h-123z" />
    <glyph glyph-name="Ograve" unicode="&#xd2;" horiz-adv-x="1591" 
d="M764 -37c-162.667 0 -293.5 49.001 -392.5 147.001s-148.5 236 -148.5 414c0 169.333 39.167 330.333 117.5 483s185.166 275.834 320.499 369.501s288.333 140.5 459 140.5c168 0 301.167 -49.333 399.5 -148s147.5 -236.334 147.5 -413.001
c0 -170.667 -40 -332.834 -120 -486.501s-187.167 -276.5 -321.5 -368.5s-288.166 -138 -461.499 -138zM803 120.001c110.667 0 213.666 35.5 308.999 106.5s174.5 173.5 237.5 307.5s94.5 270.333 94.5 409c0 119.333 -31.333 218.666 -94 297.999s-151.667 119 -267 119
c-106 0 -207.167 -35.167 -303.5 -105.5s-176 -172.666 -239 -306.999s-94.5 -271.166 -94.5 -410.499c0 -120.667 31.833 -220.334 95.5 -299.001s150.834 -118 261.501 -118zM1120 1604l-212 296h222l138 -296h-148z" />
    <glyph glyph-name="Oacute" unicode="&#xd3;" horiz-adv-x="1591" 
d="M764 -37c-162.667 0 -293.5 49.001 -392.5 147.001s-148.5 236 -148.5 414c0 169.333 39.167 330.333 117.5 483s185.166 275.834 320.499 369.501s288.333 140.5 459 140.5c168 0 301.167 -49.333 399.5 -148s147.5 -236.334 147.5 -413.001
c0 -170.667 -40 -332.834 -120 -486.501s-187.167 -276.5 -321.5 -368.5s-288.166 -138 -461.499 -138zM803 120.001c110.667 0 213.666 35.5 308.999 106.5s174.5 173.5 237.5 307.5s94.5 270.333 94.5 409c0 119.333 -31.333 218.666 -94 297.999s-151.667 119 -267 119
c-106 0 -207.167 -35.167 -303.5 -105.5s-176 -172.666 -239 -306.999s-94.5 -271.166 -94.5 -410.499c0 -120.667 31.833 -220.334 95.5 -299.001s150.834 -118 261.501 -118zM971.999 1604l256 296h235l-343 -296h-148z" />
    <glyph glyph-name="Ocircumflex" unicode="&#xd4;" horiz-adv-x="1591" 
d="M764 -37c-162.667 0 -293.5 49.001 -392.5 147.001s-148.5 236 -148.5 414c0 169.333 39.167 330.333 117.5 483s185.166 275.834 320.499 369.501s288.333 140.5 459 140.5c168 0 301.167 -49.333 399.5 -148s147.5 -236.334 147.5 -413.001
c0 -170.667 -40 -332.834 -120 -486.501s-187.167 -276.5 -321.5 -368.5s-288.166 -138 -461.499 -138zM803 120.001c110.667 0 213.666 35.5 308.999 106.5s174.5 173.5 237.5 307.5s94.5 270.333 94.5 409c0 119.333 -31.333 218.666 -94 297.999s-151.667 119 -267 119
c-106 0 -207.167 -35.167 -303.5 -105.5s-176 -172.666 -239 -306.999s-94.5 -271.166 -94.5 -410.499c0 -120.667 31.833 -220.334 95.5 -299.001s150.834 -118 261.501 -118zM794.999 1604l293 296h210l139 -296h-149l-123 185l-210 -185h-160z" />
    <glyph glyph-name="Otilde" unicode="&#xd5;" horiz-adv-x="1591" 
d="M764 -37c-162.667 0 -293.5 49.001 -392.5 147.001s-148.5 236 -148.5 414c0 169.333 39.167 330.333 117.5 483s185.166 275.834 320.499 369.501s288.333 140.5 459 140.5c168 0 301.167 -49.333 399.5 -148s147.5 -236.334 147.5 -413.001
c0 -170.667 -40 -332.834 -120 -486.501s-187.167 -276.5 -321.5 -368.5s-288.166 -138 -461.499 -138zM803 120.001c110.667 0 213.666 35.5 308.999 106.5s174.5 173.5 237.5 307.5s94.5 270.333 94.5 409c0 119.333 -31.333 218.666 -94 297.999s-151.667 119 -267 119
c-106 0 -207.167 -35.167 -303.5 -105.5s-176 -172.666 -239 -306.999s-94.5 -271.166 -94.5 -410.499c0 -120.667 31.833 -220.334 95.5 -299.001s150.834 -118 261.501 -118zM844.999 1604c16.667 85.333 45.999 145.668 87.999 181.001s86.333 53 133 53
c34 0 70.333 -10.333 109 -31l48 -26c36 -19.333 61 -29 75 -29c38.667 0 64.334 28.667 77.001 86h124c-16.667 -84.667 -46.167 -144.834 -88.5 -180.501s-86.5 -53.5 -132.5 -53.5c-34 0 -70.333 10.333 -109 31l-48 26c-36 19.333 -61 29 -75 29
c-38.667 0 -64.667 -28.667 -78 -86h-123z" />
    <glyph glyph-name="Odieresis" unicode="&#xd6;" horiz-adv-x="1591" 
d="M764 -37c-162.667 0 -293.5 49.001 -392.5 147.001s-148.5 236 -148.5 414c0 169.333 39.167 330.333 117.5 483s185.166 275.834 320.499 369.501s288.333 140.5 459 140.5c168 0 301.167 -49.333 399.5 -148s147.5 -236.334 147.5 -413.001
c0 -170.667 -40 -332.834 -120 -486.501s-187.167 -276.5 -321.5 -368.5s-288.166 -138 -461.499 -138zM803 120.001c110.667 0 213.666 35.5 308.999 106.5s174.5 173.5 237.5 307.5s94.5 270.333 94.5 409c0 119.333 -31.333 218.666 -94 297.999s-151.667 119 -267 119
c-106 0 -207.167 -35.167 -303.5 -105.5s-176 -172.666 -239 -306.999s-94.5 -271.166 -94.5 -410.499c0 -120.667 31.833 -220.334 95.5 -299.001s150.834 -118 261.501 -118zM869.999 1604l34 173h173l-34 -173h-173zM1265 1604l34 173h173l-34 -173h-173z" />
    <glyph glyph-name="multiply" unicode="&#xd7;" 
d="M138 169l526 434l-354 433l118 99l351 -437l525 437l88 -119l-522 -436l359 -438l-114 -93l-356 437l-528 -437z" />
    <glyph glyph-name="Oslash" unicode="&#xd8;" horiz-adv-x="1591" 
d="M93 -37l213 221.998c-39.333 67.333 -63.166 121.666 -71.499 162.999s-12.5 90.333 -12.5 147c0 188 38.667 357.833 116 509.5s184 275 320 370s288.333 142.5 457 142.5c140 0 261.333 -35.667 364 -107l103 107h214l-213 -222c40 -72.667 63.833 -131.5 71.5 -176.5
s11.5 -94.5 11.5 -148.5c0 -178 -38.833 -343.167 -116.5 -495.5s-184.334 -275.666 -320.001 -369.999s-289.167 -141.5 -460.5 -141.5c-46 0 -89.667 3.83301 -131 11.5s-78.333 18.334 -111 32.001s-70.667 35.834 -114 66.501l-106 -110h-214zM477 366.998l859 892.002
c-26 27.333 -51 47.333 -75 60s-51.667 22.667 -83 30s-63.333 11 -96 11c-105.333 0 -205.833 -34.833 -301.5 -104.5s-175.167 -171.334 -238.5 -305.001s-95 -268.5 -95 -404.5c0 -54.667 10 -114.334 30 -179.001zM1412 1113l-855.998 -889.001
c64.667 -69.333 148 -104 250 -104c107.333 0 209.166 35.667 305.499 107s175.666 173.333 237.999 306s93.5 268.334 93.5 407.001c0 60 -10.333 117.667 -31 173z" />
    <glyph glyph-name="Ugrave" unicode="&#xd9;" horiz-adv-x="1419" 
d="M471 1480l220.997 0.000976562l-194 -973c-9.33301 -49.333 -14 -95.333 -14 -138c0 -83.333 28.167 -146 84.5 -188s126.5 -63 210.5 -63c96.667 0 176.834 30.833 240.501 92.5s110.834 170.5 141.501 326.5l188 943h183l-180 -909
c-30 -150.667 -68.333 -265.834 -115 -345.501s-113.667 -143.334 -201 -191.001s-188.666 -71.5 -303.999 -71.5c-132.667 0 -243.5 33.333 -332.5 100s-133.5 166.334 -133.5 299.001c0 58.667 6.66699 122 20 190zM1033 1604l-212 296h222l138 -296h-148z" />
    <glyph glyph-name="Uacute" unicode="&#xda;" horiz-adv-x="1419" 
d="M471 1480l220.997 0.000976562l-194 -973c-9.33301 -49.333 -14 -95.333 -14 -138c0 -83.333 28.167 -146 84.5 -188s126.5 -63 210.5 -63c96.667 0 176.834 30.833 240.501 92.5s110.834 170.5 141.501 326.5l188 943h183l-180 -909
c-30 -150.667 -68.333 -265.834 -115 -345.501s-113.667 -143.334 -201 -191.001s-188.666 -71.5 -303.999 -71.5c-132.667 0 -243.5 33.333 -332.5 100s-133.5 166.334 -133.5 299.001c0 58.667 6.66699 122 20 190zM881.997 1604l256 296h235l-343 -296h-148z" />
    <glyph glyph-name="Ucircumflex" unicode="&#xdb;" horiz-adv-x="1419" 
d="M471 1480l220.997 0.000976562l-194 -973c-9.33301 -49.333 -14 -95.333 -14 -138c0 -83.333 28.167 -146 84.5 -188s126.5 -63 210.5 -63c96.667 0 176.834 30.833 240.501 92.5s110.834 170.5 141.501 326.5l188 943h183l-180 -909
c-30 -150.667 -68.333 -265.834 -115 -345.501s-113.667 -143.334 -201 -191.001s-188.666 -71.5 -303.999 -71.5c-132.667 0 -243.5 33.333 -332.5 100s-133.5 166.334 -133.5 299.001c0 58.667 6.66699 122 20 190zM711.997 1604l293 296h210l139 -296h-149l-123 185
l-210 -185h-160z" />
    <glyph glyph-name="Udieresis" unicode="&#xdc;" horiz-adv-x="1419" 
d="M471 1480l220.997 0.000976562l-194 -973c-9.33301 -49.333 -14 -95.333 -14 -138c0 -83.333 28.167 -146 84.5 -188s126.5 -63 210.5 -63c96.667 0 176.834 30.833 240.501 92.5s110.834 170.5 141.501 326.5l188 943h183l-180 -909
c-30 -150.667 -68.333 -265.834 -115 -345.501s-113.667 -143.334 -201 -191.001s-188.666 -71.5 -303.999 -71.5c-132.667 0 -243.5 33.333 -332.5 100s-133.5 166.334 -133.5 299.001c0 58.667 6.66699 122 20 190zM743.997 1604l34 173h173l-34 -173h-173zM1139 1604
l34 173h173l-34 -173h-173z" />
    <glyph glyph-name="Yacute" unicode="&#xdd;" horiz-adv-x="1246" 
d="M520 0l132 666l-342 814h226l263 -623l493 623h210l-640 -813l-132 -667h-210zM792 1604l256 296h235l-343 -296h-148z" />
    <glyph glyph-name="Thorn" unicode="&#xde;" horiz-adv-x="1178" 
d="M191 0l295 1480h208l-59 -296h214c140 0 242.833 -27.167 308.5 -81.5s98.5 -127.5 98.5 -219.5c0 -93.333 -30.667 -188.166 -92 -284.499s-144 -169.833 -248 -220.5s-216 -76 -336 -76h-120l-61 -302h-208zM489 459.999l95.001 0.000976562
c94.667 0 173.667 17.333 237 52s114.666 85.667 153.999 153s59 136.666 59 207.999c0 60.667 -24.5 101.5 -73.5 122.5s-125.833 31.5 -230.5 31.5h-127z" />
    <glyph glyph-name="germandbls" unicode="&#xdf;" horiz-adv-x="1219" 
d="M119 -395l307 1542c34 172 91.667 291.167 173 357.5s178.333 99.5 291 99.5c96.667 0 168.834 -24.5 216.501 -73.5s71.5 -104.833 71.5 -167.5c0 -94.667 -56.333 -188.667 -169 -282l-84 -70c-19.333 -16 -37.5 -36 -54.5 -60s-25.5 -47.667 -25.5 -71
c0 -20 4.5 -38.5 13.5 -55.5s37.5 -48.5 85.5 -94.5l102 -97c40.667 -38.667 71.667 -69.667 93 -93c25.333 -27.333 45.5 -59.333 60.5 -96s22.5 -75.334 22.5 -116.001c0 -90 -35.833 -171.333 -107.5 -244s-176.167 -109 -313.5 -109c-34 0 -64.167 2.33301 -90.5 7
s-68.833 16.334 -127.5 35.001l31 154c94 -32 168 -48 222 -48c61.333 0 110 18.5 146 55.5s54 78.5 54 124.5c0 30.667 -8.83301 58.667 -26.5 84s-48.834 59 -93.501 101l-154 143c-45.333 42.667 -73.666 77.5 -84.999 104.5s-17 55.5 -17 85.5
c0 85.333 51.333 175.333 154 270l75 70c20.667 20 41.167 46 61.5 78s30.5 66.333 30.5 103c0 40.667 -12.833 69.834 -38.5 87.501s-54.834 26.5 -87.501 26.5c-50 0 -94.833 -20 -134.5 -60s-70.5 -114.667 -92.5 -224l-312 -1567h-197z" />
    <glyph glyph-name="agrave" unicode="&#xe0;" horiz-adv-x="1246" 
d="M851 0l89.001 444c-84 -141.333 -176.333 -254.833 -277 -340.5s-194.667 -128.5 -282 -128.5c-63.333 0 -113.833 27 -151.5 81s-56.5 114.333 -56.5 181c0 132.667 37.167 271.667 111.5 417s165.5 257.833 273.5 337.5s223.333 119.5 346 119.5
c23.333 0 48.666 -2 75.999 -6s56.333 -10.333 87 -19h198l-216 -1086h-198zM986.001 679l50.998 252.001c-24 12.667 -48.667 22.167 -74 28.5s-51.666 9.5 -78.999 9.5c-75.333 0 -152 -31.333 -230 -94s-142.667 -154 -194 -274s-77 -228.667 -77 -326
c0 -30.667 6.83301 -56.334 20.5 -77.001s34.167 -31 61.5 -31c98.667 0 272.334 170.667 521.001 512zM952.999 1283l-212 296h222l138 -296h-148z" />
    <glyph glyph-name="aacute" unicode="&#xe1;" horiz-adv-x="1246" 
d="M851 0l89.001 444c-84 -141.333 -176.333 -254.833 -277 -340.5s-194.667 -128.5 -282 -128.5c-63.333 0 -113.833 27 -151.5 81s-56.5 114.333 -56.5 181c0 132.667 37.167 271.667 111.5 417s165.5 257.833 273.5 337.5s223.333 119.5 346 119.5
c23.333 0 48.666 -2 75.999 -6s56.333 -10.333 87 -19h198l-216 -1086h-198zM986.001 679l50.998 252.001c-24 12.667 -48.667 22.167 -74 28.5s-51.666 9.5 -78.999 9.5c-75.333 0 -152 -31.333 -230 -94s-142.667 -154 -194 -274s-77 -228.667 -77 -326
c0 -30.667 6.83301 -56.334 20.5 -77.001s34.167 -31 61.5 -31c98.667 0 272.334 170.667 521.001 512zM826.999 1283l256 296h235l-343 -296h-148z" />
    <glyph glyph-name="acircumflex" unicode="&#xe2;" horiz-adv-x="1246" 
d="M851 0l89.001 444c-84 -141.333 -176.333 -254.833 -277 -340.5s-194.667 -128.5 -282 -128.5c-63.333 0 -113.833 27 -151.5 81s-56.5 114.333 -56.5 181c0 132.667 37.167 271.667 111.5 417s165.5 257.833 273.5 337.5s223.333 119.5 346 119.5
c23.333 0 48.666 -2 75.999 -6s56.333 -10.333 87 -19h198l-216 -1086h-198zM986.001 679l50.998 252.001c-24 12.667 -48.667 22.167 -74 28.5s-51.666 9.5 -78.999 9.5c-75.333 0 -152 -31.333 -230 -94s-142.667 -154 -194 -274s-77 -228.667 -77 -326
c0 -30.667 6.83301 -56.334 20.5 -77.001s34.167 -31 61.5 -31c98.667 0 272.334 170.667 521.001 512zM621.999 1283l293 296h210l139 -296h-149l-123 185l-210 -185h-160z" />
    <glyph glyph-name="atilde" unicode="&#xe3;" horiz-adv-x="1246" 
d="M851 0l89.001 444c-84 -141.333 -176.333 -254.833 -277 -340.5s-194.667 -128.5 -282 -128.5c-63.333 0 -113.833 27 -151.5 81s-56.5 114.333 -56.5 181c0 132.667 37.167 271.667 111.5 417s165.5 257.833 273.5 337.5s223.333 119.5 346 119.5
c23.333 0 48.666 -2 75.999 -6s56.333 -10.333 87 -19h198l-216 -1086h-198zM986.001 679l50.998 252.001c-24 12.667 -48.667 22.167 -74 28.5s-51.666 9.5 -78.999 9.5c-75.333 0 -152 -31.333 -230 -94s-142.667 -154 -194 -274s-77 -228.667 -77 -326
c0 -30.667 6.83301 -56.334 20.5 -77.001s34.167 -31 61.5 -31c98.667 0 272.334 170.667 521.001 512zM654.999 1283c16.667 85.333 45.999 145.668 87.999 181.001s86.333 53 133 53c34 0 70.333 -10.333 109 -31l48 -26c36 -19.333 61 -29 75 -29
c38.667 0 64.334 28.667 77.001 86h124c-16.667 -84.667 -46.167 -144.834 -88.5 -180.501s-86.5 -53.5 -132.5 -53.5c-34 0 -70.333 10.333 -109 31l-48 26c-36 19.333 -61 29 -75 29c-38.667 0 -64.667 -28.667 -78 -86h-123z" />
    <glyph glyph-name="adieresis" unicode="&#xe4;" horiz-adv-x="1246" 
d="M851 0l89.001 444c-84 -141.333 -176.333 -254.833 -277 -340.5s-194.667 -128.5 -282 -128.5c-63.333 0 -113.833 27 -151.5 81s-56.5 114.333 -56.5 181c0 132.667 37.167 271.667 111.5 417s165.5 257.833 273.5 337.5s223.333 119.5 346 119.5
c23.333 0 48.666 -2 75.999 -6s56.333 -10.333 87 -19h198l-216 -1086h-198zM986.001 679l50.998 252.001c-24 12.667 -48.667 22.167 -74 28.5s-51.666 9.5 -78.999 9.5c-75.333 0 -152 -31.333 -230 -94s-142.667 -154 -194 -274s-77 -228.667 -77 -326
c0 -30.667 6.83301 -56.334 20.5 -77.001s34.167 -31 61.5 -31c98.667 0 272.334 170.667 521.001 512zM673.999 1283l34 173h173l-34 -173h-173zM1069 1283l34 173h173l-34 -173h-173z" />
    <glyph glyph-name="aring" unicode="&#xe5;" horiz-adv-x="1246" 
d="M851 0l89.001 444c-84 -141.333 -176.333 -254.833 -277 -340.5s-194.667 -128.5 -282 -128.5c-63.333 0 -113.833 27 -151.5 81s-56.5 114.333 -56.5 181c0 132.667 37.167 271.667 111.5 417s165.5 257.833 273.5 337.5s223.333 119.5 346 119.5
c23.333 0 48.666 -2 75.999 -6s56.333 -10.333 87 -19h198l-216 -1086h-198zM986.001 679l50.998 252.001c-24 12.667 -48.667 22.167 -74 28.5s-51.666 9.5 -78.999 9.5c-75.333 0 -152 -31.333 -230 -94s-142.667 -154 -194 -274s-77 -228.667 -77 -326
c0 -30.667 6.83301 -56.334 20.5 -77.001s34.167 -31 61.5 -31c98.667 0 272.334 170.667 521.001 512zM945.999 1283c-44 0 -81.667 15.667 -113 47s-47 69 -47 113c0 44.667 15.833 82.667 47.5 114s69.167 47 112.5 47c44 0 81.833 -15.667 113.5 -47
s47.5 -69.333 47.5 -114c0 -44 -15.833 -81.667 -47.5 -113s-69.5 -47 -113.5 -47zM945.999 1357c24 0 44.5 8.5 61.5 25.5s25.5 37.167 25.5 60.5c0 24 -8.5 44.5 -25.5 61.5s-37.5 25.5 -61.5 25.5c-23.333 0 -43.5 -8.5 -60.5 -25.5s-25.5 -37.5 -25.5 -61.5
c0 -23.333 8.5 -43.5 25.5 -60.5s37.167 -25.5 60.5 -25.5z" />
    <glyph glyph-name="ae" unicode="&#xe6;" horiz-adv-x="1830" 
d="M943 447c-67.333 -120.667 -130.667 -213 -190 -277s-119.5 -112.5 -180.5 -145.5s-117.5 -49.5 -169.5 -49.5c-74 0 -130.833 27.167 -170.5 81.5s-59.5 115.833 -59.5 184.5c0 125.333 38.5 262.833 115.5 412.5s169 263.167 276 340.5s219.5 116 337.5 116
c22 0 48.167 -2 78.5 -6s64.833 -10 103.5 -18h181l-18 -88c40.667 31.333 77 54 109 68s66.667 24.833 104 32.5s75 11.5 113 11.5c78.667 0 139.5 -18.833 182.5 -56.5s64.5 -91.167 64.5 -160.5c0 -82 -26.167 -157.5 -78.5 -226.5s-130.5 -127.5 -234.5 -175.5
s-230 -78 -378 -90c0 -92 20.167 -159.833 60.5 -203.5s92.833 -65.5 157.5 -65.5c52 0 121 13.333 207 40s172.667 69 260 127l-38 -190c-172 -89.333 -334.333 -134 -487 -134c-120.667 0 -210.5 35.667 -269.5 107s-88.5 152.333 -88.5 243c0 28 4 68.667 12 122z
M991.999 691l49.0039 246.999c-30.667 8 -58.834 14 -84.501 18s-48.834 6 -69.501 6c-76.667 0 -152.834 -29.5 -228.501 -88.5s-140 -147.833 -193 -266.5s-79.5 -232 -79.5 -340c0 -33.333 7.16699 -59 21.5 -77s33.166 -27 56.499 -27c56 0 132.5 51.333 229.5 154
s196.5 227.334 298.5 374.001zM1147 547.999c119.333 11.333 210.998 30.667 274.998 58s114.5 63.833 151.5 109.5s55.5 89.5 55.5 131.5c0 24.667 -10.167 49 -30.5 73s-48.833 36 -85.5 36c-46 0 -92.333 -14.667 -139 -44c-37.333 -23.333 -71.666 -54 -102.999 -92
c-24.667 -30 -46.667 -62.833 -66 -98.5s-38.666 -93.5 -57.999 -173.5z" />
    <glyph glyph-name="ccedilla" unicode="&#xe7;" horiz-adv-x="1031" 
d="M940 74c-108.667 -50.667 -218.998 -82.665 -330.998 -95.998l-64 -82c81.333 -26.667 122 -71.334 122 -134.001c0 -19.333 -6.5 -40.333 -19.5 -63s-28.833 -40.334 -47.5 -53.001c-19.333 -12.667 -42.333 -22.667 -69 -30s-51.334 -11 -74.001 -11
c-39.333 0 -79 6.66699 -119 20l17 83c24.667 -7.33301 45 -11 61 -11c38 0 66.333 8.33301 85 25s28 36 28 58c0 16.667 -5.16699 31.667 -15.5 45s-33.5 25 -69.5 35l-19 6l82 109c-56 6.66699 -97.667 15.334 -125 26.001s-53 25.667 -77 45
c-44.667 35.333 -75.834 79 -93.501 131s-26.5 109.333 -26.5 172c0 214 77.333 399.333 232 556c61.333 62.667 130.166 112.5 206.499 149.5s154.833 55.5 235.5 55.5c76.667 0 161.667 -12 255 -36l-32 -158c-78.667 30.667 -154 46 -226 46
c-58.667 0 -115 -13.333 -169 -40s-99.667 -63 -137 -109c-50 -61.333 -88.333 -131.333 -115 -210s-40 -156.667 -40 -234c0 -81.333 19.333 -139.833 58 -175.5s86.334 -53.5 143.001 -53.5c40 0 91.667 9.33301 155 28c39.333 10.667 74.333 21.667 105 33
s71.667 31.666 123 60.999z" />
    <glyph glyph-name="egrave" unicode="&#xe8;" horiz-adv-x="1084" 
d="M1029 109c-172 -89.333 -333.997 -134.002 -485.997 -134.002c-114 0 -202.167 33.333 -264.5 100s-93.5 157.334 -93.5 272.001c0 124.667 28.667 245.334 86 362.001s135.166 212.667 233.499 288s205.166 113 320.499 113c80 0 141.333 -19 184 -57
s64 -91.333 64 -160c0 -82 -26.167 -157.5 -78.5 -226.5s-130.333 -127.5 -234 -175.5s-229.5 -78 -377.5 -90c0 -92.667 20.167 -160.667 60.5 -204s92.833 -65 157.5 -65c51.333 0 120.166 13.5 206.499 40.5s172.833 69.167 259.5 126.5zM401.003 547.998
c119.333 11.333 210.831 30.667 274.498 58s114 63.833 151 109.5s55.5 89.5 55.5 131.5c0 26.667 -10.833 51.5 -32.5 74.5s-49.5 34.5 -83.5 34.5c-46 0 -92 -14.667 -138 -44c-37.333 -23.333 -71.666 -54 -102.999 -92c-25.333 -30 -47.666 -62.833 -66.999 -98.5
s-38.333 -93.5 -57 -173.5zM825.001 1283l-212 296h222l138 -296h-148z" />
    <glyph glyph-name="eacute" unicode="&#xe9;" horiz-adv-x="1084" 
d="M1029 109c-172 -89.333 -333.997 -134.002 -485.997 -134.002c-114 0 -202.167 33.333 -264.5 100s-93.5 157.334 -93.5 272.001c0 124.667 28.667 245.334 86 362.001s135.166 212.667 233.499 288s205.166 113 320.499 113c80 0 141.333 -19 184 -57
s64 -91.333 64 -160c0 -82 -26.167 -157.5 -78.5 -226.5s-130.333 -127.5 -234 -175.5s-229.5 -78 -377.5 -90c0 -92.667 20.167 -160.667 60.5 -204s92.833 -65 157.5 -65c51.333 0 120.166 13.5 206.499 40.5s172.833 69.167 259.5 126.5zM401.003 547.998
c119.333 11.333 210.831 30.667 274.498 58s114 63.833 151 109.5s55.5 89.5 55.5 131.5c0 26.667 -10.833 51.5 -32.5 74.5s-49.5 34.5 -83.5 34.5c-46 0 -92 -14.667 -138 -44c-37.333 -23.333 -71.666 -54 -102.999 -92c-25.333 -30 -47.666 -62.833 -66.999 -98.5
s-38.333 -93.5 -57 -173.5zM677.001 1283l256 296h235l-343 -296h-148z" />
    <glyph glyph-name="ecircumflex" unicode="&#xea;" horiz-adv-x="1084" 
d="M1029 109c-172 -89.333 -333.997 -134.002 -485.997 -134.002c-114 0 -202.167 33.333 -264.5 100s-93.5 157.334 -93.5 272.001c0 124.667 28.667 245.334 86 362.001s135.166 212.667 233.499 288s205.166 113 320.499 113c80 0 141.333 -19 184 -57
s64 -91.333 64 -160c0 -82 -26.167 -157.5 -78.5 -226.5s-130.333 -127.5 -234 -175.5s-229.5 -78 -377.5 -90c0 -92.667 20.167 -160.667 60.5 -204s92.833 -65 157.5 -65c51.333 0 120.166 13.5 206.499 40.5s172.833 69.167 259.5 126.5zM401.003 547.998
c119.333 11.333 210.831 30.667 274.498 58s114 63.833 151 109.5s55.5 89.5 55.5 131.5c0 26.667 -10.833 51.5 -32.5 74.5s-49.5 34.5 -83.5 34.5c-46 0 -92 -14.667 -138 -44c-37.333 -23.333 -71.666 -54 -102.999 -92c-25.333 -30 -47.666 -62.833 -66.999 -98.5
s-38.333 -93.5 -57 -173.5zM482.001 1283l293 296h210l139 -296h-149l-123 185l-210 -185h-160z" />
    <glyph glyph-name="edieresis" unicode="&#xeb;" horiz-adv-x="1084" 
d="M1029 109c-172 -89.333 -333.997 -134.002 -485.997 -134.002c-114 0 -202.167 33.333 -264.5 100s-93.5 157.334 -93.5 272.001c0 124.667 28.667 245.334 86 362.001s135.166 212.667 233.499 288s205.166 113 320.499 113c80 0 141.333 -19 184 -57
s64 -91.333 64 -160c0 -82 -26.167 -157.5 -78.5 -226.5s-130.333 -127.5 -234 -175.5s-229.5 -78 -377.5 -90c0 -92.667 20.167 -160.667 60.5 -204s92.833 -65 157.5 -65c51.333 0 120.166 13.5 206.499 40.5s172.833 69.167 259.5 126.5zM401.003 547.998
c119.333 11.333 210.831 30.667 274.498 58s114 63.833 151 109.5s55.5 89.5 55.5 131.5c0 26.667 -10.833 51.5 -32.5 74.5s-49.5 34.5 -83.5 34.5c-46 0 -92 -14.667 -138 -44c-37.333 -23.333 -71.666 -54 -102.999 -92c-25.333 -30 -47.666 -62.833 -66.999 -98.5
s-38.333 -93.5 -57 -173.5zM560.001 1283l34 173h173l-34 -173h-173zM955.001 1283l34 173h173l-34 -173h-173z" />
    <glyph glyph-name="igrave" unicode="&#xec;" horiz-adv-x="592" 
d="M197 0l216 1086h197l-216 -1086h-197zM548 1283l-212 296h222l138 -296h-148z" />
    <glyph glyph-name="iacute" unicode="&#xed;" horiz-adv-x="592" 
d="M197 0l216 1086h197l-216 -1086h-197zM403 1283l256 296h235l-343 -296h-148z" />
    <glyph glyph-name="icircumflex" unicode="&#xee;" horiz-adv-x="592" 
d="M197 0l216 1086h197l-216 -1086h-197zM211 1283l293 296h210l139 -296h-149l-123 185l-210 -185h-160z" />
    <glyph glyph-name="idieresis" unicode="&#xef;" horiz-adv-x="592" 
d="M197 0l216 1086h197l-216 -1086h-197zM261 1283l34 173h173l-34 -173h-173zM656 1283l34 173h173l-34 -173h-173z" />
    <glyph glyph-name="eth" unicode="&#xf0;" horiz-adv-x="1138" 
d="M938 1052c-10.667 51.333 -21.833 89.334 -33.5 114.001s-34.167 58.334 -67.5 101.001l-231 -157l-84 121l197 135c-62.667 32 -115.834 50.833 -159.501 56.5s-91.834 8.5 -144.501 8.5h-31l30 148h33c77.333 0 149.333 -6 216 -18
c27.333 -4.66699 57 -12.334 89 -23.001s74 -33 126 -67l159 109l84 -123l-133 -89c58.667 -70 103.667 -153.667 135 -251s47 -202 47 -314c0 -234.667 -59 -432.334 -177 -593.001c-56.667 -77.333 -123.5 -135.833 -200.5 -175.5s-161.5 -59.5 -253.5 -59.5
c-110.667 0 -198.167 32.833 -262.5 98.5s-96.5 153.167 -96.5 262.5c0 90 17.333 182 52 276s82.667 179 144 255c52.667 65.333 114.834 118 186.501 158s146.834 60 225.501 60c48 0 98 -11 150 -33zM578.001 123.001c114.667 0 210.667 57.667 288 173
c38 57.333 67 118.833 87 184.5s30 131.5 30 197.5c0 91.333 -19.833 157 -59.5 197s-85.5 60 -137.5 60c-54 0 -104.833 -16.333 -152.5 -49s-89.167 -73.667 -124.5 -123c-38.667 -55.333 -68.5 -116.5 -89.5 -183.5s-31.5 -134.5 -31.5 -202.5
c0 -88.667 18.667 -153.167 56 -193.5s82 -60.5 134 -60.5z" />
    <glyph glyph-name="ntilde" unicode="&#xf1;" horiz-adv-x="1271" 
d="M197 0l215.998 1086h197l-88 -444c78.667 133.333 165.5 244.666 260.5 333.999s191.5 134 289.5 134c52.667 0 95.667 -16.167 129 -48.5s50 -84.833 50 -157.5c0 -46 -3.66699 -88.333 -11 -127l-155 -777h-197l156 783c3.33301 17.333 5 35.333 5 54
c0 22.667 -6 41 -18 55s-27 21 -45 21c-53.333 0 -119.666 -42 -198.999 -126s-184.666 -219 -315.999 -405l-77 -382h-197zM594.998 1283c16.667 85.333 45.999 145.668 87.999 181.001s86.333 53 133 53c34 0 70.333 -10.333 109 -31l48 -26c36 -19.333 61 -29 75 -29
c38.667 0 64.334 28.667 77.001 86h124c-16.667 -84.667 -46.167 -144.834 -88.5 -180.501s-86.5 -53.5 -132.5 -53.5c-34 0 -70.333 10.333 -109 31l-48 26c-36 19.333 -61 29 -75 29c-38.667 0 -64.667 -28.667 -78 -86h-123z" />
    <glyph glyph-name="ograve" unicode="&#xf2;" horiz-adv-x="1160" 
d="M538 -25c-120.667 0 -210.5 35 -269.5 105s-88.5 157 -88.5 261c0 128.667 30.833 256 92.5 382s139 222 232 288s201.833 99 326.5 99c125.333 0 216.833 -35.167 274.5 -105.5s86.5 -156.833 86.5 -259.5c0 -128 -30.5 -254.5 -91.5 -379.5
s-137.5 -221.333 -229.5 -289s-203 -101.5 -333 -101.5zM582 123c110.667 0 205 60.166 283 180.499s117 253.5 117 399.5c0 86.667 -16.5 151.5 -49.5 194.5s-82.5 64.5 -148.5 64.5c-106 0 -198.167 -59.667 -276.5 -179s-117.5 -252.666 -117.5 -399.999
c0 -85.333 16.5 -150 49.5 -194s80.5 -66 142.5 -66zM831 1283l-212 296h222l138 -296h-148z" />
    <glyph glyph-name="oacute" unicode="&#xf3;" horiz-adv-x="1160" 
d="M538 -25c-120.667 0 -210.5 35 -269.5 105s-88.5 157 -88.5 261c0 128.667 30.833 256 92.5 382s139 222 232 288s201.833 99 326.5 99c125.333 0 216.833 -35.167 274.5 -105.5s86.5 -156.833 86.5 -259.5c0 -128 -30.5 -254.5 -91.5 -379.5
s-137.5 -221.333 -229.5 -289s-203 -101.5 -333 -101.5zM582 123c110.667 0 205 60.166 283 180.499s117 253.5 117 399.5c0 86.667 -16.5 151.5 -49.5 194.5s-82.5 64.5 -148.5 64.5c-106 0 -198.167 -59.667 -276.5 -179s-117.5 -252.666 -117.5 -399.999
c0 -85.333 16.5 -150 49.5 -194s80.5 -66 142.5 -66zM683 1283l256 296h235l-343 -296h-148z" />
    <glyph glyph-name="ocircumflex" unicode="&#xf4;" horiz-adv-x="1160" 
d="M538 -25c-120.667 0 -210.5 35 -269.5 105s-88.5 157 -88.5 261c0 128.667 30.833 256 92.5 382s139 222 232 288s201.833 99 326.5 99c125.333 0 216.833 -35.167 274.5 -105.5s86.5 -156.833 86.5 -259.5c0 -128 -30.5 -254.5 -91.5 -379.5
s-137.5 -221.333 -229.5 -289s-203 -101.5 -333 -101.5zM582 123c110.667 0 205 60.166 283 180.499s117 253.5 117 399.5c0 86.667 -16.5 151.5 -49.5 194.5s-82.5 64.5 -148.5 64.5c-106 0 -198.167 -59.667 -276.5 -179s-117.5 -252.666 -117.5 -399.999
c0 -85.333 16.5 -150 49.5 -194s80.5 -66 142.5 -66zM517 1283l293 296h210l139 -296h-149l-123 185l-210 -185h-160z" />
    <glyph glyph-name="otilde" unicode="&#xf5;" horiz-adv-x="1160" 
d="M538 -25c-120.667 0 -210.5 35 -269.5 105s-88.5 157 -88.5 261c0 128.667 30.833 256 92.5 382s139 222 232 288s201.833 99 326.5 99c125.333 0 216.833 -35.167 274.5 -105.5s86.5 -156.833 86.5 -259.5c0 -128 -30.5 -254.5 -91.5 -379.5
s-137.5 -221.333 -229.5 -289s-203 -101.5 -333 -101.5zM582 123c110.667 0 205 60.166 283 180.499s117 253.5 117 399.5c0 86.667 -16.5 151.5 -49.5 194.5s-82.5 64.5 -148.5 64.5c-106 0 -198.167 -59.667 -276.5 -179s-117.5 -252.666 -117.5 -399.999
c0 -85.333 16.5 -150 49.5 -194s80.5 -66 142.5 -66zM545 1283c16.667 85.333 45.999 145.668 87.999 181.001s86.333 53 133 53c34 0 70.333 -10.333 109 -31l48 -26c36 -19.333 61 -29 75 -29c38.667 0 64.334 28.667 77.001 86h124
c-16.667 -84.667 -46.167 -144.834 -88.5 -180.501s-86.5 -53.5 -132.5 -53.5c-34 0 -70.333 10.333 -109 31l-48 26c-36 19.333 -61 29 -75 29c-38.667 0 -64.667 -28.667 -78 -86h-123z" />
    <glyph glyph-name="odieresis" unicode="&#xf6;" horiz-adv-x="1160" 
d="M538 -25c-120.667 0 -210.5 35 -269.5 105s-88.5 157 -88.5 261c0 128.667 30.833 256 92.5 382s139 222 232 288s201.833 99 326.5 99c125.333 0 216.833 -35.167 274.5 -105.5s86.5 -156.833 86.5 -259.5c0 -128 -30.5 -254.5 -91.5 -379.5
s-137.5 -221.333 -229.5 -289s-203 -101.5 -333 -101.5zM582 123c110.667 0 205 60.166 283 180.499s117 253.5 117 399.5c0 86.667 -16.5 151.5 -49.5 194.5s-82.5 64.5 -148.5 64.5c-106 0 -198.167 -59.667 -276.5 -179s-117.5 -252.666 -117.5 -399.999
c0 -85.333 16.5 -150 49.5 -194s80.5 -66 142.5 -66zM575 1283l34 173h173l-34 -173h-173zM970 1283l34 173h173l-34 -173h-173z" />
    <glyph glyph-name="divide" unicode="&#xf7;" 
d="M552 74l44 222h222l-44 -222h-222zM208 518l29 148h1086l-29 -148h-1086zM713 888l45 222h222l-44 -222h-223z" />
    <glyph glyph-name="oslash" unicode="&#xf8;" horiz-adv-x="1160" 
d="M93 -25l135.004 153.999c-32.667 64.667 -49 133.667 -49 207c0 108.667 21.667 216.834 65 324.501s103 201.167 179 280.5c51.333 53.333 110.666 94.833 177.999 124.5s140.666 44.5 219.999 44.5c32 0 63.167 -2.33301 93.5 -7s72.166 -20 125.499 -46l47 53h197
l-141 -160c32 -64 48 -130.667 48 -200c0 -108.667 -21.5 -216.834 -64.5 -324.501s-102.833 -201.5 -179.5 -281.5c-52.667 -54.667 -112.834 -96.5 -180.501 -125.5s-141.5 -43.5 -221.5 -43.5c-29.333 0 -59.833 1.33301 -91.5 4s-72.5 17.334 -122.5 44.001l-41 -48
h-197zM391.004 315.999l520 593c-34.667 35.333 -79 53 -133 53c-100.667 0 -190.667 -59.333 -270 -178s-119 -251.667 -119 -399c0 -16 0.666992 -39 2 -69zM458.004 166.999c32 -29.333 75.333 -44 130 -44c106 0 198 60.333 276 181s117 248 117 382
c0 15.333 -1 40.333 -3 75z" />
    <glyph glyph-name="ugrave" unicode="&#xf9;" horiz-adv-x="1271" 
d="M1291 1086l-216.002 -1086h-198l89 444c-78.667 -133.333 -165.5 -244.833 -260.5 -334.5s-191.5 -134.5 -289.5 -134.5c-52 0 -95 16.167 -129 48.5s-51 85.833 -51 160.5c0 44 4 85.333 12 124l154 778h198l-156 -784c-3.33301 -16 -5 -33.667 -5 -53
c0 -23.333 5.83301 -41.833 17.5 -55.5s26.834 -20.5 45.501 -20.5c54.667 0 123.334 44.667 206.001 134s185.667 221.333 309 396l76 383h198zM877.998 1283l-212 296h222l138 -296h-148z" />
    <glyph glyph-name="uacute" unicode="&#xfa;" horiz-adv-x="1271" 
d="M1291 1086l-216.002 -1086h-198l89 444c-78.667 -133.333 -165.5 -244.833 -260.5 -334.5s-191.5 -134.5 -289.5 -134.5c-52 0 -95 16.167 -129 48.5s-51 85.833 -51 160.5c0 44 4 85.333 12 124l154 778h198l-156 -784c-3.33301 -16 -5 -33.667 -5 -53
c0 -23.333 5.83301 -41.833 17.5 -55.5s26.834 -20.5 45.501 -20.5c54.667 0 123.334 44.667 206.001 134s185.667 221.333 309 396l76 383h198zM766.998 1283l256 296h235l-343 -296h-148z" />
    <glyph glyph-name="ucircumflex" unicode="&#xfb;" horiz-adv-x="1271" 
d="M1291 1086l-216.002 -1086h-198l89 444c-78.667 -133.333 -165.5 -244.833 -260.5 -334.5s-191.5 -134.5 -289.5 -134.5c-52 0 -95 16.167 -129 48.5s-51 85.833 -51 160.5c0 44 4 85.333 12 124l154 778h198l-156 -784c-3.33301 -16 -5 -33.667 -5 -53
c0 -23.333 5.83301 -41.833 17.5 -55.5s26.834 -20.5 45.501 -20.5c54.667 0 123.334 44.667 206.001 134s185.667 221.333 309 396l76 383h198zM556.998 1283l293 296h210l139 -296h-149l-123 185l-210 -185h-160z" />
    <glyph glyph-name="udieresis" unicode="&#xfc;" horiz-adv-x="1271" 
d="M1291 1086l-216.002 -1086h-198l89 444c-78.667 -133.333 -165.5 -244.833 -260.5 -334.5s-191.5 -134.5 -289.5 -134.5c-52 0 -95 16.167 -129 48.5s-51 85.833 -51 160.5c0 44 4 85.333 12 124l154 778h198l-156 -784c-3.33301 -16 -5 -33.667 -5 -53
c0 -23.333 5.83301 -41.833 17.5 -55.5s26.834 -20.5 45.501 -20.5c54.667 0 123.334 44.667 206.001 134s185.667 221.333 309 396l76 383h198zM584.998 1283l34 173h173l-34 -173h-173zM979.998 1283l34 173h173l-34 -173h-173z" />
    <glyph glyph-name="yacute" unicode="&#xfd;" horiz-adv-x="1126" 
d="M204 -395l248 395l-181 1086h202l139 -835l519 835h189l-927 -1481h-189zM749 1283l256 296h235l-343 -296h-148z" />
    <glyph glyph-name="thorn" unicode="&#xfe;" horiz-adv-x="1246" 
d="M119 -395l352.999 1777h198l-147 -740c83.333 141.333 175.5 254.666 276.5 339.999s195.167 128 282.5 128c62.667 0 112.834 -26.5 150.501 -79.5s56.5 -114.167 56.5 -183.5c0 -131.333 -36.833 -269.333 -110.5 -414s-164.667 -257.167 -273 -337.5
s-223.833 -120.5 -346.5 -120.5c-46 0 -100.667 8.33301 -164 25l-79 -395h-197zM475.999 407.001l-49.999 -252.999c48.667 -24.667 99.667 -37 153 -37c74.667 0 151.167 31.333 229.5 94s143.166 154 194.499 274s77 228.667 77 326c0 31.333 -7 57.166 -21 77.499
s-34.333 30.5 -61 30.5c-99.333 0 -273.333 -170.667 -522 -512z" />
    <glyph glyph-name="ydieresis" unicode="&#xff;" horiz-adv-x="1126" 
d="M204 -395l248 395l-181 1086h202l139 -835l519 835h189l-927 -1481h-189zM555 1283l34 173h173l-34 -173h-173zM950 1283l34 173h173l-34 -173h-173z" />
    <glyph glyph-name="dotlessi" unicode="&#x131;" horiz-adv-x="592" 
d="M197 0l216 1086h197l-216 -1086h-197z" />
    <glyph glyph-name="OE" unicode="&#x152;" horiz-adv-x="2058" 
d="M1128 0l16.002 81.001c-114.667 -78.667 -245.334 -118 -392.001 -118c-147.333 0 -272.333 47.333 -375 142s-154 234.334 -154 419.001c0 169.333 39.333 330.5 118 483.5s185.667 276.167 321 369.5s283.666 140 444.999 140c40 0 79 -3.33301 117 -10
s70.667 -15.834 98 -27.501s57 -30.834 89 -57.501l12 58h826l-31 -157h-617l-94 -475h504l-30 -155h-505l-107 -536h660l-31 -157h-870zM1259 659.001l63.001 324.001c18 94 27 155 27 183c0 40 -12.167 74.167 -36.5 102.5s-56.5 50.666 -96.5 66.999
s-84.667 24.5 -134 24.5c-104.667 0 -205.334 -35.167 -302.001 -105.5s-176.5 -172.833 -239.5 -307.5s-94.5 -271.334 -94.5 -410.001c0 -119.333 31.5 -218.666 94.5 -297.999s151.833 -119 266.5 -119c70 0 134.167 16.333 192.5 49s106.5 73 144.5 121
s76.333 171 115 369z" />
    <glyph glyph-name="oe" unicode="&#x153;" horiz-adv-x="1842" 
d="M973 172c-59.333 -65.333 -124.502 -114.5 -195.502 -147.5s-147.833 -49.5 -230.5 -49.5c-128 0 -221.167 35.167 -279.5 105.5s-87.5 156.833 -87.5 259.5c0 107.333 21.833 214.666 65.5 321.999s103.167 200.333 178.5 279c50.667 52.667 109.667 94 177 124
s139.333 45 216 45c66 0 131.167 -12.5 195.5 -37.5s115.5 -79.167 153.5 -162.5c60.667 64 124 113.333 190 148s140.667 52 224 52c84 0 147 -19.167 189 -57.5s63 -91.5 63 -159.5c0 -52 -11.333 -102.667 -34 -152s-53.667 -91.666 -93 -126.999
c-60 -55.333 -130.333 -100 -211 -134c-43.333 -18.667 -88.5 -34.5 -135.5 -47.5s-119.5 -23.5 -217.5 -31.5c0 -92 20.167 -159.833 60.5 -203.5s92.833 -65.5 157.5 -65.5c52 0 121.167 13.5 207.5 40.5s172.833 69.167 259.5 126.5l-38 -190
c-172 -89.333 -334 -134 -486 -134c-71.333 0 -136.666 14.833 -195.999 44.5s-103.666 80.5 -132.999 152.5zM581.998 123c110.667 0 205 60.166 283 180.499s117 253.5 117 399.5c0 86.667 -16.5 151.5 -49.5 194.5s-82.5 64.5 -148.5 64.5
c-106 0 -198.167 -59.667 -276.5 -179s-117.5 -252.666 -117.5 -399.999c0 -85.333 16.5 -150 49.5 -194s80.5 -66 142.5 -66zM1159 547.999c88 8.66699 151.831 18.333 191.498 29s77.834 25 114.501 43c60 30 104.333 67.667 133 113s43 83.333 43 114
c0 24.667 -10.167 49 -30.5 73s-48.833 36 -85.5 36c-46 0 -92.333 -14.667 -139 -44c-36.667 -23.333 -71 -54 -103 -92c-24.667 -30 -46.667 -62.833 -66 -98.5s-38.666 -93.5 -57.999 -173.5z" />
    <glyph glyph-name="Scaron" unicode="&#x160;" horiz-adv-x="1133" 
d="M131 31l36 182.999c92 -38.667 165.667 -64 221 -76s110 -18 164 -18c110 0 193.167 25.5 249.5 76.5s84.5 112.167 84.5 183.5c0 48 -13 91 -39 129s-75.667 86.667 -149 146l-88 70c-104 84 -169.833 151.667 -197.5 203s-41.5 107 -41.5 167
c0 110 44 207.833 132 293.5s218.333 128.5 391 128.5c120.667 0 249 -21.333 385 -64l-36 -177c-136.667 56 -258.334 84 -365.001 84c-86 0 -157 -20.667 -213 -62s-84 -97 -84 -167c0 -46 12.167 -85.667 36.5 -119s76.833 -82.666 157.5 -147.999l92 -74
c76.667 -61.333 134.334 -121.833 173.001 -181.5s58 -126.5 58 -200.5c0 -118.667 -47.5 -222.5 -142.5 -311.5s-243.5 -133.5 -445.5 -133.5c-57.333 0 -110.5 3.5 -159.5 10.5s-122.167 26.167 -219.5 57.5zM1343 1900l-294 -296h-210l-138 296h148l124 -185l209 185h161
z" />
    <glyph glyph-name="scaron" unicode="&#x161;" horiz-adv-x="1001" 
d="M156 58l33.0029 165.998c136.667 -67.333 250.667 -101 342 -101c55.333 0 98.666 13 129.999 39s47 59.667 47 101c0 26 -6.33301 49.5 -19 70.5s-37 50.167 -73 87.5l-91 93c-76.667 78.667 -125 138.5 -145 179.5s-30 81.167 -30 120.5c0 69.333 30.667 136 92 200
s155.333 96 282 96c38 0 77.167 -2.83301 117.5 -8.5s102.5 -23.834 186.5 -54.501l-33 -166c-82 38.667 -141 61.834 -177 69.501s-70.667 11.5 -104 11.5c-57.333 0 -99.5 -12.5 -126.5 -37.5s-40.5 -54.833 -40.5 -89.5c0 -22.667 6 -44.667 18 -66s42 -56.333 90 -105
l99 -100c54.667 -55.333 93.5 -104.333 116.5 -147s34.5 -89 34.5 -139c0 -90 -35 -163 -105 -219s-165 -84 -285 -84c-34.667 0 -70.834 2.83301 -108.501 8.5s-73.834 13.334 -108.501 23.001s-82 26.834 -142 51.501zM1191 1579l-294 -296h-210l-138 296h148l124 -185
l209 185h161z" />
    <glyph glyph-name="Ydieresis" unicode="&#x178;" horiz-adv-x="1246" 
d="M520 0l132 666l-342 814h226l263 -623l493 623h210l-640 -813l-132 -667h-210zM650 1604l34 173h173l-34 -173h-173zM1045 1604l34 173h173l-34 -173h-173z" />
    <glyph glyph-name="florin" unicode="&#x192;" 
d="M428 -296l201.001 1012h-185l30 148h185l20 104c28.667 142.667 64.667 251.667 108 327s95.833 131.166 157.5 167.499s142.5 54.5 242.5 54.5c57.333 0 128.666 -8 213.999 -24l-32 -161c-82 24.667 -154.333 37 -217 37c-64.667 0 -117.667 -21.833 -159 -65.5
s-73 -119.834 -95 -228.501l-42 -211h197l-29 -148h-197l-202 -1012h-197z" />
    <glyph glyph-name="circumflex" unicode="&#x2c6;" horiz-adv-x="1160" 
d="M542 1283l293 296h210l139 -296h-149l-123 185l-210 -185h-160z" />
    <glyph glyph-name="caron" unicode="&#x2c7;" horiz-adv-x="1160" 
d="M1253 1579l-294 -296h-210l-138 296h148l124 -185l209 185h161z" />
    <glyph glyph-name="macron" unicode="&#x2c9;" horiz-adv-x="1160" 
d="M585 1283l29 148h568l-29 -148h-568z" />
    <glyph glyph-name="breve" unicode="&#x2d8;" horiz-adv-x="1160" 
d="M601 1579h123c4 -62 22.833 -104.167 56.5 -126.5s72.167 -33.5 115.5 -33.5c104 0 186.333 53.333 247 160h123c-36 -78.667 -73 -137.167 -111 -175.5s-81.5 -68 -130.5 -89s-100.833 -31.5 -155.5 -31.5c-82.667 0 -148 26 -196 78s-72 119 -72 201v17z" />
    <glyph glyph-name="dotaccent" unicode="&#x2d9;" horiz-adv-x="1160" 
d="M770 1283l39 197h198l-40 -197h-197z" />
    <glyph glyph-name="ring" unicode="&#x2da;" horiz-adv-x="1160" 
d="M896 1283c-44 0 -81.667 15.667 -113 47s-47 69 -47 113c0 44.667 15.833 82.667 47.5 114s69.167 47 112.5 47c44 0 81.833 -15.667 113.5 -47s47.5 -69.333 47.5 -114c0 -44 -15.833 -81.667 -47.5 -113s-69.5 -47 -113.5 -47zM896 1357c24 0 44.5 8.5 61.5 25.5
s25.5 37.167 25.5 60.5c0 24 -8.5 44.5 -25.5 61.5s-37.5 25.5 -61.5 25.5c-23.333 0 -43.5 -8.5 -60.5 -25.5s-25.5 -37.5 -25.5 -61.5c0 -23.333 8.5 -43.5 25.5 -60.5s37.167 -25.5 60.5 -25.5z" />
    <glyph glyph-name="ogonek" unicode="&#x2db;" horiz-adv-x="1160" 
d="M663 -280c-48.667 -10.667 -91.999 -15.998 -129.999 -15.998c-61.333 0 -107.833 11.5 -139.5 34.5s-47.5 49.5 -47.5 79.5c0 58 56 118.667 168 182h125c-30.667 -18 -62.334 -42.333 -95.001 -73s-49 -56.334 -49 -77.001c0 -14.667 7.5 -28.334 22.5 -41.001
s38.833 -19 71.5 -19c32 0 62.667 5.33301 92 16z" />
    <glyph glyph-name="tilde" unicode="&#x2dc;" horiz-adv-x="1160" 
d="M565 1283c16.667 85.333 45.999 145.668 87.999 181.001s86.333 53 133 53c34 0 70.333 -10.333 109 -31l48 -26c36 -19.333 61 -29 75 -29c38.667 0 64.334 28.667 77.001 86h124c-16.667 -84.667 -46.167 -144.834 -88.5 -180.501s-86.5 -53.5 -132.5 -53.5
c-34 0 -70.333 10.333 -109 31l-48 26c-36 19.333 -61 29 -75 29c-38.667 0 -64.667 -28.667 -78 -86h-123z" />
    <glyph glyph-name="hungarumlaut" unicode="&#x2dd;" horiz-adv-x="1160" 
d="M547 1283l280 296h163l-310 -296h-133zM873 1283l280 296h163l-310 -296h-133z" />
    <glyph glyph-name="pi" unicode="&#x3c0;" horiz-adv-x="1621" 
d="M391 0l181 912.999h-40c-26 0 -66 -4.83301 -120 -14.5s-123.333 -43.167 -208 -100.5l43 215c50 28 98.667 47.167 146 57.5s109 15.5 185 15.5h1194l-34 -173h-290l-123 -618c-8 -41.333 -12 -77.666 -12 -108.999c0 -68.667 18 -130.667 54 -186h-220
c-21.333 42.667 -32 90 -32 142c0 57.333 4.66699 109.333 14 156l122 615h-481l-182 -913h-197z" />
    <glyph glyph-name="endash" unicode="&#x2013;" horiz-adv-x="1024" 
d="M201 543l25 123h838l-24 -123h-839z" />
    <glyph glyph-name="emdash" unicode="&#x2014;" horiz-adv-x="2048" 
d="M194 543l20 99h1875l-20 -99h-1875z" />
    <glyph glyph-name="quoteleft" unicode="&#x2018;" horiz-adv-x="648" 
d="M596 1246l98.999 0.000976562l-49 -247h-247l46 234c14.667 74 34.834 135.5 60.501 184.5s56.5 86.5 92.5 112.5s90.333 42.333 163 49l-16 -80c-36 0 -64.5 -15.333 -85.5 -46s-39.167 -84.334 -54.5 -161.001z" />
    <glyph glyph-name="quoteright" unicode="&#x2019;" horiz-adv-x="648" 
d="M565 1332h-98.999l49 247h247l-45 -228c-15.333 -76 -36.333 -139 -63 -189s-58.667 -87.5 -96 -112.5s-89.666 -39.833 -156.999 -44.5l16 81c37.333 0 66.166 15.5 86.499 46.5s38.166 84.167 53.499 159.5z" />
    <glyph glyph-name="quotesinglbase" unicode="&#x201a;" horiz-adv-x="648" 
d="M148 -296l16 80c39.333 4 67.833 21.5 85.5 52.5s31.5 72.167 41.5 123.5l8 40h-92l49 247h247l-46 -228c-12 -62.667 -31.667 -117.5 -59 -164.5s-59 -82.5 -95 -106.5s-87.667 -38.667 -155 -44z" />
    <glyph glyph-name="quotedblleft" unicode="&#x201c;" horiz-adv-x="740" 
d="M479 1258h68l-40 -197h-197l39 196c18.667 92 49 163.833 91 215.5s99 87.167 171 106.5l-20 -99c-33.333 -10.667 -56.333 -28.667 -69 -54s-26 -75.333 -40 -150zM825 1258h67l-39 -197h-198l39 195c14.667 74 40.5 139.333 77.5 196s98.5 99 184.5 127l-20 -99
c-35.333 -8 -60.333 -31.667 -75 -71s-25.667 -84 -33 -134z" />
    <glyph glyph-name="quotedblright" unicode="&#x201d;" horiz-adv-x="740" 
d="M441 1382l-68 0.000976562l40 197h197l-39 -199c-18 -88 -47.5 -158.5 -88.5 -211.5s-98.833 -89.833 -173.5 -110.5l19 96c32 9.33301 54.833 27.666 68.5 54.999s27.167 78 40.5 152zM787 1382h-67.998l39 197h198l-40 -200c-16.667 -83.333 -43.334 -151 -80.001 -203
s-97.334 -92.333 -182.001 -121l19 98c36 9.33301 61.167 32 75.5 68s25.833 82.333 34.5 139z" />
    <glyph glyph-name="quotedblbase" unicode="&#x201e;" horiz-adv-x="740" 
d="M166 0l-68 0.000976562l40 197h197l-39 -198c-18 -89.333 -47.833 -160.333 -89.5 -213s-99.167 -89.334 -172.5 -110.001l19 96c32 9.33301 54.833 28 68.5 56s27.167 78.333 40.5 151zM512 0.000976562l-68 0.000976562l39 197h198l-40 -199
c-16.667 -84 -43.5 -152 -80.5 -204s-97.5 -92.333 -181.5 -121l19 98c36 9.33301 61.167 32.166 75.5 68.499s25.833 82.5 34.5 138.5z" />
    <glyph glyph-name="dagger" unicode="&#x2020;" 
d="M490 -296l250 1135l-356 -25l29 148l347 -24l83 542h198l-133 -542l357 24l-30 -148l-346 25l-201 -1135h-198z" />
    <glyph glyph-name="daggerdbl" unicode="&#x2021;" 
d="M497 -296l132 543l-356 -25l29 148l347 -25l98 494l-356 -25l29 148l347 -24l83 542h198l-133 -542l356 24l-29 -148l-347 25l-98 -494l357 25l-30 -148l-347 25l-83 -543h-197z" />
    <glyph glyph-name="bullet" unicode="&#x2022;" 
d="M759 438c-40.667 0 -75.5 14.5 -104.5 43.5s-43.5 63.833 -43.5 104.5s14.667 75.5 44 104.5s64 43.5 104 43.5s74.667 -14.5 104 -43.5s44 -63.833 44 -104.5s-14.5 -75.5 -43.5 -104.5s-63.833 -43.5 -104.5 -43.5z" />
    <glyph glyph-name="ellipsis" unicode="&#x2026;" horiz-adv-x="2048" 
d="M247 0l39 197h198l-40 -197h-197zM926 0l39 197h197l-39 -197h-197zM1604 0l39 197h198l-40 -197h-197z" />
    <glyph glyph-name="perthousand" unicode="&#x2030;" horiz-adv-x="2103" 
d="M534 740c-68 0 -126.666 21.3311 -175.999 63.998s-74 109.334 -74 200.001c0 84.667 18.333 165.334 55 242.001s85.167 134.834 145.5 174.501s125.166 59.5 194.499 59.5c70.667 0 130.5 -21.333 179.5 -64s73.5 -109 73.5 -199c0 -85.333 -18.5 -166.333 -55.5 -243
s-85.167 -134.834 -144.5 -174.501s-125.333 -59.5 -198 -59.5zM558.001 850.998c63.333 0 117.833 36.501 163.5 109.501s68.5 152.167 68.5 237.5c0 57.333 -11.333 100.166 -34 128.499s-53.667 42.5 -93 42.5c-62.667 0 -116.834 -36.333 -162.501 -109
s-68.5 -151.667 -68.5 -237c0 -57.333 11.333 -100.333 34 -129s53.334 -43 92.001 -43zM149.001 -37.001l1353 1554h164l-1354 -1554h-163zM1132 -0.000976562c-67.333 0 -125.833 21.167 -175.5 63.5s-74.5 109.166 -74.5 200.499c0 84.667 18.5 165.334 55.5 242.001
s85.667 134.834 146 174.501s125.166 59.5 194.499 59.5c70.667 0 130.334 -21.5 179.001 -64.5s73 -109.167 73 -198.5c0 -85.333 -18.5 -166.333 -55.5 -243s-85.167 -134.834 -144.5 -174.501s-125.333 -59.5 -198 -59.5zM1157 110.999c41.333 0 79.5 15.833 114.5 47.5
s63.167 75.5 84.5 131.5s32 111.667 32 167c0 57.333 -11.167 100.333 -33.5 129s-53.5 43 -93.5 43c-62 0 -116 -36.333 -162 -109s-69 -151.667 -69 -237c0 -57.333 11.5 -100.333 34.5 -129s53.833 -43 92.5 -43zM1854 -0.000976562
c-67.333 0 -125.834 21.167 -175.501 63.5s-74.5 109.166 -74.5 200.499c0 84.667 18.333 165.334 55 242.001s85.334 134.834 146.001 174.501s125.667 59.5 195 59.5c70 0 129.5 -21.5 178.5 -64.5s73.5 -109.167 73.5 -198.5c0 -85.333 -18.5 -166.333 -55.5 -243
s-85.167 -134.834 -144.5 -174.501s-125.333 -59.5 -198 -59.5zM1878 110.999c41.333 0 79.5 15.833 114.5 47.5s63.333 75.5 85 131.5s32.5 111.667 32.5 167c0 57.333 -11.333 100.333 -34 129s-53.667 43 -93 43c-62.667 0 -116.834 -36.333 -162.501 -109
s-68.5 -151.667 -68.5 -237c0 -57.333 11.333 -100.333 34 -129s53.334 -43 92.001 -43z" />
    <glyph glyph-name="guilsinglleft" unicode="&#x2039;" horiz-adv-x="672" 
d="M778 901l-377 -358l210 -376l-105 -68l-302 444l487 444z" />
    <glyph glyph-name="guilsinglright" unicode="&#x203a;" horiz-adv-x="672" 
d="M111 185l376 358l-209 376l104 68l303 -444l-488 -444z" />
    <glyph glyph-name="Euro" unicode="&#x20ac;" horiz-adv-x="1296" 
d="M446 528v-6c0 -124 32.167 -219.833 96.5 -287.5s154.5 -101.5 270.5 -101.5c66.667 0 133.167 9.33301 199.5 28s151.5 49.667 255.5 93l-33 -168c-144 -58 -251.5 -93 -322.5 -105s-131.5 -18 -181.5 -18c-160.667 0 -285.5 48.667 -374.5 146
s-133.5 234.333 -133.5 411v8h-119l31 150h101l26 125h-139l31 149h161c88 180 195.333 319.333 322 418s285.667 148 477 148c112 0 235 -17.333 369 -52l-37 -182c-141.333 50.667 -259.333 76 -354 76c-244.667 0 -429 -136 -553 -408h610l-31 -149h-633l-2 -6
c-16 -75.333 -24.667 -115 -26 -119h628l-30 -150h-609z" />
    <glyph glyph-name="trademark" unicode="&#x2122;" horiz-adv-x="1641" 
d="M394 740l123 617h-247l24 123h667l-25 -123h-247l-122 -617h-173zM949 740l147 740h210l76 -441l245 441h222l-147 -740h-173l113 571l-273 -509h-118l-73 407l-93 -469h-136z" />
    <glyph glyph-name="Omega" unicode="&#x2126;" horiz-adv-x="1567" 
d="M40 0l30.999 156.999h424c-69.333 85.333 -120.5 159 -153.5 221s-56.667 120.167 -71 174.5s-21.5 110.833 -21.5 169.5c0 131.333 38.5 259.5 115.5 384.5s177.5 224.667 301.5 299s261 111.5 411 111.5c114.667 0 214.834 -22 300.501 -66s152 -109.667 199 -197
s70.5 -179 70.5 -275c0 -89.333 -14.333 -173.166 -43 -251.499s-74 -160.5 -136 -246.5s-168 -194 -318 -324h409l-31 -157h-608l31 157c142 132 241.667 238.833 299 320.5s100.833 162.834 130.5 243.501s44.5 165 44.5 253c0 135.333 -36.833 233.666 -110.5 294.999
s-159.834 92 -258.501 92c-99.333 0 -194.833 -31.5 -286.5 -94.5s-164.667 -146.667 -219 -251s-81.5 -212.5 -81.5 -324.5c0 -55.333 6.83301 -111.166 20.5 -167.499s33.834 -112.333 60.501 -168s67.667 -121.834 123 -198.501l-31 -157h-602z" />
    <glyph glyph-name="partialdiff" unicode="&#x2202;" 
d="M346 1298c34.667 71.333 72.998 128.001 114.998 170.001s88.333 75.167 139 99.5s104 36.5 160 36.5c87.333 0 166.166 -27.333 236.499 -82s121.5 -136.834 153.5 -246.501s48 -231.5 48 -365.5c0 -180 -25.167 -340.167 -75.5 -480.5
s-122.666 -251.166 -216.999 -332.499s-195.166 -122 -302.499 -122c-97.333 0 -171.833 33.667 -223.5 101s-77.5 149.666 -77.5 246.999c0 112 28.333 224.833 85 338.5s127.667 201.834 213 264.501s169.333 94 252 94c29.333 0 57.666 -4.33301 84.999 -13
s63.333 -27.334 108 -56.001v30c0 133.333 -34.167 242.333 -102.5 327s-149.166 127 -242.499 127c-39.333 0 -79.166 -5 -119.499 -15s-79.5 -24.333 -117.5 -43s-77 -45 -117 -79zM1045 774.001c-32.667 34.667 -65.999 60.501 -99.999 77.501s-68.667 25.5 -104 25.5
c-56.667 0 -111.834 -22.167 -165.501 -66.5s-98.334 -105.833 -134.001 -184.5s-53.5 -155.334 -53.5 -230.001c0 -76.667 15.833 -140.667 47.5 -192s75.834 -77 132.501 -77c81.333 0 160 58.667 236 176s123 274.333 141 471z" />
    <glyph glyph-name="Delta" unicode="&#x2206;" horiz-adv-x="1339" 
d="M14 0l37 187l803 1293h208l301 -1293l-37 -187h-1312zM245 187h904l-246 1055z" />
    <glyph glyph-name="product" unicode="&#x220f;" horiz-adv-x="1542" 
d="M209 0l264 1323h-99l31 157h1321l-32 -157h-98l-263 -1323h-210l263 1323h-704l-263 -1323h-210z" />
    <glyph glyph-name="summation" unicode="&#x2211;" horiz-adv-x="1308" 
d="M38 0l37 187l721 554l-433 582l31 157h1122l-31 -157h-860l430 -578l-725 -558h979l-37 -187h-1234z" />
    <glyph glyph-name="fraction" unicode="&#x2215;" horiz-adv-x="241" 
d="M-512 -37l1358 1554h196l-1358 -1554h-196z" />
    <glyph glyph-name="periodcentered" unicode="&#x2219;" 
d="M618 469l49 247h247l-49 -247h-247z" />
    <glyph glyph-name="radical" unicode="&#x221a;" horiz-adv-x="1456" 
d="M245 326l-44 106l299 157l257 -649l915 1689h158l-1049 -1925h-104l-279 702z" />
    <glyph glyph-name="infinity" unicode="&#x221e;" horiz-adv-x="1735" 
d="M947 479c-99.333 -130 -181.334 -213.499 -246.001 -250.499s-130 -55.5 -196 -55.5c-81.333 0 -148.333 29.167 -201 87.5s-79 131.166 -79 218.499c0 126 46.333 246.333 139 361s199.334 172 320.001 172c70 0 129.833 -22.333 179.5 -67
s101.5 -127.334 155.5 -248.001c109.333 144 198.833 232.5 268.5 265.5s127.834 49.5 174.501 49.5c48.667 0 94.667 -12.833 138 -38.5s77.333 -61 102 -106s37 -98.167 37 -159.5c0 -86.667 -21.333 -172.167 -64 -256.5s-99.334 -151.833 -170.001 -202.5
s-146.667 -76 -228 -76c-58.667 0 -109.5 14.333 -152.5 43s-91.167 95.334 -144.5 200.001zM889.999 595.001c-28 65.333 -65.667 125.167 -113 179.5s-94.333 81.5 -141 81.5c-39.333 0 -80 -14.833 -122 -44.5s-75.667 -75.167 -101 -136.5s-38 -119 -38 -173
c0 -67.333 18.333 -114.333 55 -141s74.667 -40 114 -40c48 0 99.667 21.5 155 64.5s119 112.833 191 209.5zM1073 593.002c6.66699 -11.333 10.998 -18.998 12.998 -22.998l53 -102c17.333 -34 43.5 -67.167 78.5 -99.5s72.5 -48.5 112.5 -48.5
c41.333 0 82.166 17.167 122.499 51.5s72.833 79.166 97.5 134.499s37 111.333 37 168c0 65.333 -17.167 113.333 -51.5 144s-72.166 46 -113.499 46c-32 0 -67.167 -10.667 -105.5 -32s-73.666 -48.333 -105.999 -81s-78.166 -85.334 -137.499 -158.001z" />
    <glyph glyph-name="integral" unicode="&#x222b;" 
d="M955 1396l-11.999 1.00391c-31.333 0 -56 -23.5 -74 -70.5s-27 -145.167 -27 -294.5l9 -383v-85c0 -339.333 -27 -567.5 -81 -684.5s-134.333 -175.5 -241 -175.5c-54 0 -93.5 14.667 -118.5 44s-37.5 56.333 -37.5 81c0 16.667 4.33301 32.667 13 48
s20.334 28.166 35.001 38.499s30.667 15.5 48 15.5c30 0 52.167 -9.66699 66.5 -29s21.5 -37.333 21.5 -54c0 -4.66699 -1.33301 -12.334 -4 -23.001l14 -2c23.333 0 45.5 18.5 66.5 55.5s31.5 130.167 31.5 279.5l-3 118l-8 296v85c0 141.333 5.83301 275.166 17.5 401.499
s41.667 234.333 90 324s121.166 134.5 218.499 134.5c51.333 0 89.666 -14 114.999 -42s38 -55.667 38 -83c0 -20 -8.33301 -42.5 -25 -67.5s-41.334 -37.5 -74.001 -37.5c-27.333 0 -48.166 9.16699 -62.499 27.5s-21.5 37.166 -21.5 56.499c0 4.66699 1.66699 13 5 25z
" />
    <glyph glyph-name="approxequal" unicode="&#x2248;" 
d="M235 654c20 96.667 62.166 175.501 126.499 236.501s135.833 91.5 214.5 91.5c34 0 65.833 -5.83301 95.5 -17.5s64.834 -29.167 105.501 -52.5l97 -57l114 -69c30.667 -14 59.334 -21 86.001 -21c31.333 0 62.5 15.333 93.5 46s52.5 77 64.5 139h148
c-31.333 -120.667 -77 -206.334 -137 -257.001s-126.333 -76 -199 -76c-30.667 0 -59 3.66699 -85 11s-72.667 30.333 -140 69l-100 58l-107 62c-24.667 11.333 -47.334 17 -68.001 17c-26 0 -55.167 -12.5 -87.5 -37.5s-56.833 -72.5 -73.5 -142.5h-148zM151.999 234.001
c19.333 97.333 61.3311 176.499 125.998 237.499s136 91.5 214 91.5c34.667 0 66.834 -5.83301 96.501 -17.5s64.834 -29.5 105.501 -53.5l96 -56l115 -69c30 -14.667 58.667 -22 86 -22c32 0 63.5 15.833 94.5 47.5s51.833 77.5 62.5 137.5h149
c-31.333 -120 -76.833 -205.5 -136.5 -256.5s-126.167 -76.5 -199.5 -76.5c-33.333 0 -62.5 3.83301 -87.5 11.5s-70.833 30.834 -137.5 69.501l-101 57l-106 62c-25.333 12 -48 18 -68 18c-26 0 -55 -12.333 -87 -37s-56.667 -72.667 -74 -144h-148z" />
    <glyph glyph-name="notequal" unicode="&#x2260;" 
d="M174 345l29 148h409l152 198h-521l29 148h605l153 197h169l-152 -197h311l-30 -148h-394l-151 -198h506l-29 -148h-590l-149 -197h-173l151 197h-325z" />
    <glyph glyph-name="lessequal" unicode="&#x2264;" 
d="M1191 0h-1086l29 148h1086zM1446 1283l-38 -178l-825 -377l680 -381l-39 -150l-972 543z" />
    <glyph glyph-name="greaterequal" unicode="&#x2265;" 
d="M1191 0h-1086l29 148h1086zM144 197l38 178l825 378l-674 380l27 150l978 -543z" />
    <glyph glyph-name="lozenge" unicode="&#x25ca;" 
d="M648 0l-435 543l651 543l435 -543zM690 209l399 334l-267 333l-400 -333z" />
    <glyph glyph-name="fi" unicode="&#xf001;" horiz-adv-x="1308" 
d="M144 -395l264.999 1333h-173l30 148h173l9 49c14.667 71.333 41.334 139 80.001 203s86 118.333 142 163c39.333 31.333 82.333 56.333 129 75s91.667 28 135 28c55.333 0 116 -10 182 -30l-32 -157c-59.333 26.667 -111 40 -155 40c-62 0 -119.5 -27.333 -172.5 -82
s-91.5 -143 -115.5 -265l-5 -24h691l-216 -1086h-198l187 938h-494l-265 -1333h-197zM1169 1283l39 197h197l-39 -197h-197z" />
    <glyph glyph-name="fl" unicode="&#xf002;" horiz-adv-x="1307" 
d="M144 -395l265.001 1333h-173l30 148h173l9 49c30 148.667 103 270.667 219 366c44 35.333 88.667 61.333 134 78s102.666 25 171.999 25c41.333 0 80 -2.33301 116 -7l68 -9l70 -9h197l-313 -1579h-198l275 1398c-69.333 35.333 -148.333 53 -237 53
s-157.5 -31 -206.5 -93s-83.833 -145.667 -104.5 -251l-4 -21h270l-29 -148h-271l-265 -1333h-197z" />
    <glyph glyph-name="f000" horiz-adv-x="1536" 
d="M256 0v1280h1024v-1280h-1024zM320 64h896v1152h-896v-1152z" />
    <glyph glyph-name="glyph1" horiz-adv-x="0" 
 />
    <glyph glyph-name="glyph2" horiz-adv-x="648" 
 />
  </font>
</defs>
</svg>
